<svg version="1.1" viewBox="0.0 0.0 974.994750656168 134.8031496062992" fill="none" stroke="none" stroke-linecap="square" stroke-miterlimit="10" xmlns:xlink="http://www.w3.org/1999/xlink" xmlns="http://www.w3.org/2000/svg"><clipPath id="p.0"><path d="m0 0l974.99475 0l0 134.80315l-974.99475 0l0 -134.80315z" clip-rule="nonzero"/></clipPath><g clip-path="url(#p.0)"><path fill="#000000" fill-opacity="0.0" d="m0 0l974.99475 0l0 134.80315l-974.99475 0z" fill-rule="evenodd"/><g filter="url(#shadowFilter-p.1)"><use xlink:href="#p.1" transform="matrix(1.0 0.0 0.0 1.0 0.0 2.0)"/></g><defs><filter id="shadowFilter-p.1" filterUnits="userSpaceOnUse"><feGaussianBlur in="SourceAlpha" stdDeviation="2.0" result="blur"/><feComponentTransfer in="blur" color-interpolation-filters="sRGB"><feFuncR type="linear" slope="0" intercept="0.0"/><feFuncG type="linear" slope="0" intercept="0.0"/><feFuncB type="linear" slope="0" intercept="0.0"/><feFuncA type="linear" slope="0.5" intercept="0"/></feComponentTransfer></filter></defs><g id="p.1"><defs><linearGradient id="p.2" gradientUnits="userSpaceOnUse" gradientTransform="matrix(-11.595698442755552 0.0 0.0 11.595698442755552 0.0 0.0)" spreadMethod="pad" x1="-84.08222504211302" y1="0.003769900853049273" x2="-84.08226748250475" y2="11.599468343530937"><stop offset="0.0" stop-color="#dcecd5"/><stop offset="1.0" stop-color="#93bc81"/></linearGradient></defs><path fill="url(#p.2)" d="m974.9921 22.457142l0 0c0 -12.376645 -10.033264 -22.409897 -22.409912 -22.409897l-930.1723 0c-5.943474 0 -11.643519 2.361036 -15.8461895 6.563707c-4.202671 4.2026706 -6.563707 9.902716 -6.563707 15.846191l0 89.6369c0 12.376648 10.033253 22.409897 22.409897 22.409897l930.1723 0c12.376648 0 22.409912 -10.033249 22.409912 -22.409897z" fill-rule="evenodd"/><path fill="#000000" d="m356.42905 59.27559l0 -23.6875l7.75 0q3.859375 0 5.796875 1.59375q1.953125 1.59375 1.953125 4.71875q0 1.65625 -0.953125 2.9375q-0.9375 1.265625 -2.5625 1.96875q1.90625 0.546875 3.015625 2.046875q1.125 1.5 1.125 3.59375q0 3.1875 -2.0625 5.015625q-2.0625 1.8125 -5.84375 1.8125l-8.21875 0zm3.125 -11.078125l0 8.515625l5.15625 0q2.1875 0 3.4375 -1.125q1.265625 -1.125 1.265625 -3.109375q0 -4.28125 -4.65625 -4.28125l-5.203125 0zm0 -2.515625l4.71875 0q2.046875 0 3.28125 -1.015625q1.234375 -1.03125 1.234375 -2.78125q0 -1.953125 -1.140625 -2.84375q-1.140625 -0.890625 -3.46875 -0.890625l-4.625 0l0 7.53125zm28.029968 11.859375q-1.765625 2.0625 -5.171875 2.0625q-2.8125 0 -4.28125 -1.640625q-1.46875 -1.640625 -1.484375 -4.84375l0 -11.453125l3.0 0l0 11.375q0 4.0 3.265625 4.0q3.4375 0 4.578125 -2.5625l0 -12.8125l3.015625 0l0 17.609375l-2.859375 0l-0.0625 -1.734375zm17.747803 -2.9375q0 -1.21875 -0.921875 -1.890625q-0.921875 -0.671875 -3.203125 -1.15625q-2.28125 -0.5 -3.625 -1.171875q-1.34375 -0.6875 -2.0 -1.625q-0.640625 -0.953125 -0.640625 -2.265625q0 -2.15625 1.828125 -3.65625q1.84375 -1.5 4.6875 -1.5q3.0 0 4.859375 1.546875q1.859375 1.546875 1.859375 3.953125l-3.015625 0q0 -1.234375 -1.0625 -2.125q-1.046875 -0.890625 -2.640625 -0.890625q-1.640625 0 -2.578125 0.71875q-0.921875 0.703125 -0.921875 1.859375q0 1.09375 0.859375 1.65625q0.875 0.546875 3.125 1.046875q2.25 0.5 3.640625 1.203125q1.40625 0.703125 2.078125 1.6875q0.6875 0.984375 0.6875 2.40625q0 2.359375 -1.890625 3.78125q-1.890625 1.421875 -4.90625 1.421875q-2.109375 0 -3.734375 -0.75q-1.625 -0.75 -2.546875 -2.09375q-0.921875 -1.34375 -0.921875 -2.90625l3.015625 0q0.078125 1.515625 1.203125 2.40625q1.140625 0.890625 2.984375 0.890625q1.71875 0 2.75 -0.6875q1.03125 -0.703125 1.03125 -1.859375zm10.200439 4.671875l-3.015625 0l0 -17.609375l3.015625 0l0 17.609375zm-3.25 -22.28125q0 -0.734375 0.4375 -1.234375q0.453125 -0.5 1.328125 -0.5q0.890625 0 1.34375 0.5q0.453125 0.5 0.453125 1.234375q0 0.734375 -0.453125 1.234375q-0.453125 0.484375 -1.34375 0.484375q-0.875 0 -1.328125 -0.484375q-0.4375 -0.5 -0.4375 -1.234375zm10.916046 4.671875l0.09375 2.21875q2.015625 -2.546875 5.28125 -2.546875q5.578125 0 5.625 6.296875l0 11.640625l-3.015625 0l0 -11.65625q-0.015625 -1.90625 -0.875 -2.8125q-0.84375 -0.90625 -2.65625 -0.90625q-1.453125 0 -2.5625 0.78125q-1.109375 0.78125 -1.734375 2.046875l0 12.546875l-3.0 0l0 -17.609375l2.84375 0zm22.842194 17.9375q-3.578125 0 -5.828125 -2.34375q-2.234375 -2.359375 -2.234375 -6.296875l0 -0.5625q0 -2.609375 1.0 -4.671875q1.0 -2.0625 2.796875 -3.21875q1.796875 -1.171875 3.890625 -1.171875q3.4375 0 5.34375 2.265625q1.90625 2.265625 1.90625 6.484375l0 1.25l-11.921875 0q0.0625 2.59375 1.515625 4.203125q1.453125 1.609375 3.703125 1.609375q1.59375 0 2.703125 -0.65625q1.109375 -0.65625 1.9375 -1.71875l1.828125 1.421875q-2.203125 3.40625 -6.640625 3.40625zm-0.375 -15.78125q-1.8125 0 -3.046875 1.328125q-1.234375 1.3125 -1.53125 3.703125l8.8125 0l0 -0.21875q-0.125 -2.296875 -1.234375 -3.546875q-1.109375 -1.265625 -3.0 -1.265625zm20.984863 10.78125q0 -1.21875 -0.921875 -1.890625q-0.921875 -0.671875 -3.203125 -1.15625q-2.28125 -0.5 -3.625 -1.171875q-1.34375 -0.6875 -2.0 -1.625q-0.640625 -0.953125 -0.640625 -2.265625q0 -2.15625 1.828125 -3.65625q1.84375 -1.5 4.6875 -1.5q3.0 0 4.859375 1.546875q1.859375 1.546875 1.859375 3.953125l-3.015625 0q0 -1.234375 -1.0625 -2.125q-1.046875 -0.890625 -2.640625 -0.890625q-1.640625 0 -2.578125 0.71875q-0.921875 0.703125 -0.921875 1.859375q0 1.09375 0.859375 1.65625q0.875 0.546875 3.125 1.046875q2.25 0.5 3.640625 1.203125q1.40625 0.703125 2.078125 1.6875q0.6875 0.984375 0.6875 2.40625q0 2.359375 -1.890625 3.78125q-1.890625 1.421875 -4.90625 1.421875q-2.109375 0 -3.734375 -0.75q-1.625 -0.75 -2.546875 -2.09375q-0.921875 -1.34375 -0.921875 -2.90625l3.015625 0q0.078125 1.515625 1.203125 2.40625q1.140625 0.890625 2.984375 0.890625q1.71875 0 2.75 -0.6875q1.03125 -0.703125 1.03125 -1.859375zm17.184814 0q0 -1.21875 -0.921875 -1.890625q-0.921875 -0.671875 -3.203125 -1.15625q-2.28125 -0.5 -3.625 -1.171875q-1.34375 -0.6875 -2.0 -1.625q-0.640625 -0.953125 -0.640625 -2.265625q0 -2.15625 1.828125 -3.65625q1.84375 -1.5 4.6875 -1.5q3.0 0 4.859375 1.546875q1.859375 1.546875 1.859375 3.953125l-3.015625 0q0 -1.234375 -1.0625 -2.125q-1.046875 -0.890625 -2.640625 -0.890625q-1.640625 0 -2.578125 0.71875q-0.921875 0.703125 -0.921875 1.859375q0 1.09375 0.859375 1.65625q0.875 0.546875 3.125 1.046875q2.25 0.5 3.640625 1.203125q1.40625 0.703125 2.078125 1.6875q0.6875 0.984375 0.6875 2.40625q0 2.359375 -1.890625 3.78125q-1.890625 1.421875 -4.90625 1.421875q-2.109375 0 -3.734375 -0.75q-1.625 -0.75 -2.546875 -2.09375q-0.921875 -1.34375 -0.921875 -2.90625l3.015625 0q0.078125 1.515625 1.203125 2.40625q1.140625 0.890625 2.984375 0.890625q1.71875 0 2.75 -0.6875q1.03125 -0.703125 1.03125 -1.859375zm28.732391 -1.515625l-9.9219055 0l-2.234375 6.1875l-3.21875 0l9.046875 -23.6875l2.734375 0l9.0625305 23.6875l-3.203125 0l-2.265625 -6.1875zm-8.9844055 -2.5625l8.0625 0l-4.03125 -11.09375l-4.03125 11.09375zm20.022675 -8.859375l0.09375 2.21875q2.015625 -2.546875 5.28125 -2.546875q5.578125 0 5.625 6.296875l0 11.640625l-3.015625 0l0 -11.65625q-0.015625 -1.90625 -0.875 -2.8125q-0.84375 -0.90625 -2.65625 -0.90625q-1.453125 0 -2.5625 0.78125q-1.109375 0.78125 -1.734375 2.046875l0 12.546875l-3.0 0l0 -17.609375l2.84375 0zm26.420288 17.609375q-0.265625 -0.515625 -0.4375 -1.859375q-2.09375 2.1875 -5.0 2.1875q-2.609375 0 -4.28125 -1.46875q-1.65625 -1.484375 -1.65625 -3.734375q0 -2.75 2.078125 -4.265625q2.09375 -1.53125 5.890625 -1.53125l2.921875 0l0 -1.390625q0 -1.578125 -0.9375 -2.515625q-0.9375 -0.9375 -2.78125 -0.9375q-1.609375 0 -2.703125 0.828125q-1.09375 0.8125 -1.09375 1.96875l-3.03125 0q0 -1.328125 0.9375 -2.546875q0.9375 -1.234375 2.53125 -1.953125q1.609375 -0.71875 3.53125 -0.71875q3.046875 0 4.765625 1.53125q1.734375 1.515625 1.796875 4.1875l0 8.09375q0 2.4375 0.625 3.859375l0 0.265625l-3.15625 0zm-5.0 -2.296875q1.40625 0 2.671875 -0.734375q1.28125 -0.734375 1.84375 -1.90625l0 -3.609375l-2.359375 0q-5.53125 0 -5.53125 3.234375q0 1.421875 0.9375 2.21875q0.953125 0.796875 2.4375 0.796875zm15.519348 2.296875l-3.015625 0l0 -25.0l3.015625 0l0 25.0zm10.587891 -4.40625l4.09375 -13.203125l3.21875 0l-7.078125 20.328125q-1.640625 4.390625 -5.21875 4.390625l-0.578125 -0.046875l-1.125 -0.21875l0 -2.4375l0.828125 0.0625q1.515625 0 2.375 -0.625q0.859375 -0.609375 1.40625 -2.25l0.671875 -1.78125l-6.28125 -17.421875l3.28125 0l4.40625 13.203125zm20.253418 -0.265625q0 -1.21875 -0.921875 -1.890625q-0.921875 -0.671875 -3.203125 -1.15625q-2.28125 -0.5 -3.625 -1.171875q-1.34375 -0.6875 -2.0 -1.625q-0.640625 -0.953125 -0.640625 -2.265625q0 -2.15625 1.828125 -3.65625q1.84375 -1.5 4.6875 -1.5q3.0 0 4.859375 1.546875q1.859375 1.546875 1.859375 3.953125l-3.015625 0q0 -1.234375 -1.0625 -2.125q-1.046875 -0.890625 -2.640625 -0.890625q-1.640625 0 -2.578125 0.71875q-0.921875 0.703125 -0.921875 1.859375q0 1.09375 0.859375 1.65625q0.875 0.546875 3.125 1.046875q2.25 0.5 3.640625 1.203125q1.40625 0.703125 2.078125 1.6875q0.6875 0.984375 0.6875 2.40625q0 2.359375 -1.890625 3.78125q-1.890625 1.421875 -4.90625 1.421875q-2.109375 0 -3.734375 -0.75q-1.625 -0.75 -2.546875 -2.09375q-0.921875 -1.34375 -0.921875 -2.90625l3.015625 0q0.078125 1.515625 1.203125 2.40625q1.140625 0.890625 2.984375 0.890625q1.71875 0 2.75 -0.6875q1.03125 -0.703125 1.03125 -1.859375zm10.200439 4.671875l-3.015625 0l0 -17.609375l3.015625 0l0 17.609375zm-3.25 -22.28125q0 -0.734375 0.4375 -1.234375q0.453125 -0.5 1.328125 -0.5q0.890625 0 1.34375 0.5q0.453125 0.5 0.453125 1.234375q0 0.734375 -0.453125 1.234375q-0.453125 0.484375 -1.34375 0.484375q-0.875 0 -1.328125 -0.484375q-0.4375 -0.5 -0.4375 -1.234375zm18.322327 17.609375q0 -1.21875 -0.921875 -1.890625q-0.921875 -0.671875 -3.203125 -1.15625q-2.28125 -0.5 -3.625 -1.171875q-1.34375 -0.6875 -2.0 -1.625q-0.640625 -0.953125 -0.640625 -2.265625q0 -2.15625 1.828125 -3.65625q1.84375 -1.5 4.6875 -1.5q3.0 0 4.859375 1.546875q1.859375 1.546875 1.859375 3.953125l-3.015625 0q0 -1.234375 -1.0625 -2.125q-1.046875 -0.890625 -2.640625 -0.890625q-1.640625 0 -2.578125 0.71875q-0.921875 0.703125 -0.921875 1.859375q0 1.09375 0.859375 1.65625q0.875 0.546875 3.125 1.046875q2.25 0.5 3.640625 1.203125q1.40625 0.703125 2.078125 1.6875q0.6875 0.984375 0.6875 2.40625q0 2.359375 -1.890625 3.78125q-1.890625 1.421875 -4.90625 1.421875q-2.109375 0 -3.734375 -0.75q-1.625 -0.75 -2.546875 -2.09375q-0.921875 -1.34375 -0.921875 -2.90625l3.015625 0q0.078125 1.515625 1.203125 2.40625q1.140625 0.890625 2.984375 0.890625q1.71875 0 2.75 -0.6875q1.03125 -0.703125 1.03125 -1.859375z" fill-rule="nonzero"/><path fill="#000000" d="m313.07138 88.71309q-4.015625 -1.15625 -5.859375 -2.828125q-1.828125 -1.6875 -1.828125 -4.171875q0 -2.796875 2.234375 -4.625q2.25 -1.828125 5.828125 -1.828125q2.4375 0 4.34375 0.953125q1.921875 0.9375 2.96875 2.59375q1.046875 1.65625 1.046875 3.625l-3.140625 0q0 -2.140625 -1.375 -3.375q-1.359375 -1.234375 -3.84375 -1.234375q-2.3125 0 -3.609375 1.015625q-1.296875 1.015625 -1.296875 2.828125q0 1.453125 1.234375 2.453125q1.234375 1.0 4.1875 1.828125q2.953125 0.828125 4.609375 1.828125q1.671875 1.0 2.46875 2.34375q0.8125 1.328125 0.8125 3.140625q0 2.875 -2.25 4.609375q-2.234375 1.734375 -6.0 1.734375q-2.4375 0 -4.5625 -0.9375q-2.109375 -0.9375 -3.265625 -2.5625q-1.140625 -1.625 -1.140625 -3.703125l3.140625 0q0 2.15625 1.578125 3.40625q1.59375 1.234375 4.25 1.234375q2.46875 0 3.78125 -1.0q1.328125 -1.015625 1.328125 -2.75q0 -1.75 -1.21875 -2.703125q-1.21875 -0.953125 -4.421875 -1.875zm19.616058 10.890625q-3.578125 0 -5.828125 -2.34375q-2.234375 -2.359375 -2.234375 -6.296875l0 -0.5625q0 -2.609375 1.0 -4.671875q1.0 -2.0625 2.796875 -3.21875q1.796875 -1.171875 3.890625 -1.171875q3.4375 0 5.34375 2.265625q1.90625 2.265625 1.90625 6.484375l0 1.25l-11.921875 0q0.0625 2.59375 1.515625 4.203125q1.453125 1.609375 3.703125 1.609375q1.59375 0 2.703125 -0.65625q1.109375 -0.65625 1.9375 -1.71875l1.828125 1.421875q-2.203125 3.40625 -6.640625 3.40625zm-0.375 -15.78125q-1.8125 0 -3.046875 1.328125q-1.234375 1.3125 -1.53125 3.703125l8.8125 0l0 -0.21875q-0.125 -2.296875 -1.234375 -3.546875q-1.109375 -1.265625 -3.0 -1.265625zm14.813019 -6.421875l0 4.265625l3.296875 0l0 2.328125l-3.296875 0l0 10.921875q0 1.0625 0.4375 1.59375q0.4375 0.515625 1.5 0.515625q0.515625 0 1.4375 -0.1875l0 2.4375q-1.1875 0.328125 -2.3125 0.328125q-2.015625 0 -3.046875 -1.21875q-1.015625 -1.21875 -1.015625 -3.46875l0 -10.921875l-3.21875 0l0 -2.328125l3.21875 0l0 -4.265625l3.0 0zm10.886963 0l0 4.265625l3.296875 0l0 2.328125l-3.296875 0l0 10.921875q0 1.0625 0.4375 1.59375q0.4375 0.515625 1.5 0.515625q0.515625 0 1.4375 -0.1875l0 2.4375q-1.1875 0.328125 -2.3125 0.328125q-2.015625 0 -3.046875 -1.21875q-1.015625 -1.21875 -1.015625 -3.46875l0 -10.921875l-3.21875 0l0 -2.328125l3.21875 0l0 -4.265625l3.0 0zm10.074463 21.875l-3.015625 0l0 -17.609375l3.015625 0l0 17.609375zm-3.25 -22.28125q0 -0.734375 0.4375 -1.234375q0.453125 -0.5 1.328125 -0.5q0.890625 0 1.34375 0.5q0.453125 0.5 0.453125 1.234375q0 0.734375 -0.453125 1.234375q-0.453125 0.484375 -1.34375 0.484375q-0.875 0 -1.328125 -0.484375q-0.4375 -0.5 -0.4375 -1.234375zm10.916077 4.671875l0.09375 2.21875q2.015625 -2.546875 5.28125 -2.546875q5.578125 0 5.625 6.296875l0 11.640625l-3.015625 0l0 -11.65625q-0.015625 -1.90625 -0.875 -2.8125q-0.84375 -0.90625 -2.65625 -0.90625q-1.453125 0 -2.5625 0.78125q-1.109375 0.78125 -1.734375 2.046875l0 12.546875l-3.0 0l0 -17.609375l2.84375 0zm14.826538 8.65625q0 -4.109375 1.90625 -6.546875q1.90625 -2.4375 5.046875 -2.4375q3.21875 0 5.03125 2.28125l0.140625 -1.953125l2.75 0l0 17.1875q0 3.421875 -2.03125 5.390625q-2.015625 1.96875 -5.4375 1.96875q-1.90625 0 -3.734375 -0.8125q-1.8125 -0.8125 -2.78125 -2.234375l1.5625 -1.8125q1.9375 2.390625 4.734375 2.390625q2.203125 0 3.421875 -1.234375q1.234375 -1.234375 1.234375 -3.484375l0 -1.5q-1.796875 2.078125 -4.921875 2.078125q-3.09375 0 -5.015625 -2.484375q-1.90625 -2.5 -1.90625 -6.796875zm3.03125 0.34375q0 2.984375 1.21875 4.6875q1.21875 1.6875 3.421875 1.6875q2.84375 0 4.171875 -2.578125l0 -8.046875q-1.375 -2.515625 -4.140625 -2.515625q-2.203125 0 -3.4375 1.703125q-1.234375 1.703125 -1.234375 5.0625zm28.71457 -13.265625l0 4.265625l3.296875 0l0 2.328125l-3.296875 0l0 10.921875q0 1.0625 0.4375 1.59375q0.4375 0.515625 1.5 0.515625q0.515625 0 1.4375 -0.1875l0 2.4375q-1.1875 0.328125 -2.3125 0.328125q-2.015625 0 -3.046875 -1.21875q-1.015625 -1.21875 -1.015625 -3.46875l0 -10.921875l-3.21875 0l0 -2.328125l3.21875 0l0 -4.265625l3.0 0zm9.808868 6.40625q2.015625 -2.46875 5.21875 -2.46875q5.578125 0 5.625 6.296875l0 11.640625l-3.015625 0l0 -11.65625q-0.015625 -1.90625 -0.875 -2.8125q-0.84375 -0.90625 -2.65625 -0.90625q-1.453125 0 -2.5625 0.78125q-1.109375 0.78125 -1.734375 2.046875l0 12.546875l-3.0 0l0 -25.0l3.0 0l0 9.53125zm22.653381 15.796875q-3.578125 0 -5.828125 -2.34375q-2.234375 -2.359375 -2.234375 -6.296875l0 -0.5625q0 -2.609375 1.0 -4.671875q1.0 -2.0625 2.796875 -3.21875q1.796875 -1.171875 3.890625 -1.171875q3.4375 0 5.34375 2.265625q1.90625 2.265625 1.90625 6.484375l0 1.25l-11.921875 0q0.0625 2.59375 1.515625 4.203125q1.453125 1.609375 3.703125 1.609375q1.59375 0 2.703125 -0.65625q1.109375 -0.65625 1.9375 -1.71875l1.828125 1.421875q-2.203125 3.40625 -6.640625 3.40625zm-0.375 -15.78125q-1.8125 0 -3.046875 1.328125q-1.234375 1.3125 -1.53125 3.703125l8.8125 0l0 -0.21875q-0.125 -2.296875 -1.234375 -3.546875q-1.109375 -1.265625 -3.0 -1.265625zm27.50116 0.546875q-0.6875 -0.109375 -1.484375 -0.109375q-2.96875 0 -4.03125 2.515625l0 12.5l-3.0 0l0 -17.609375l2.921875 0l0.046875 2.03125q1.484375 -2.359375 4.203125 -2.359375q0.875 0 1.34375 0.234375l0 2.796875zm9.749542 15.234375q-3.578125 0 -5.828125 -2.34375q-2.234375 -2.359375 -2.234375 -6.296875l0 -0.5625q0 -2.609375 1.0 -4.671875q1.0 -2.0625 2.796875 -3.21875q1.796875 -1.171875 3.890625 -1.171875q3.4375 0 5.34375 2.265625q1.90625 2.265625 1.90625 6.484375l0 1.25l-11.921875 0q0.0625 2.59375 1.515625 4.203125q1.453125 1.609375 3.703125 1.609375q1.59375 0 2.703125 -0.65625q1.109375 -0.65625 1.9375 -1.71875l1.828125 1.421875q-2.203125 3.40625 -6.640625 3.40625zm-0.375 -15.78125q-1.8125 0 -3.046875 1.328125q-1.234375 1.3125 -1.53125 3.703125l8.8125 0l0 -0.21875q-0.125 -2.296875 -1.234375 -3.546875q-1.109375 -1.265625 -3.0 -1.265625zm20.984924 10.78125q0 -1.21875 -0.9219055 -1.890625q-0.921875 -0.671875 -3.203125 -1.15625q-2.28125 -0.5 -3.625 -1.171875q-1.34375 -0.6875 -2.0 -1.625q-0.640625 -0.953125 -0.640625 -2.265625q0 -2.15625 1.828125 -3.65625q1.84375 -1.5 4.6875 -1.5q3.0 0 4.8594055 1.546875q1.859375 1.546875 1.859375 3.953125l-3.015625 0q0 -1.234375 -1.0625305 -2.125q-1.046875 -0.890625 -2.640625 -0.890625q-1.640625 0 -2.578125 0.71875q-0.921875 0.703125 -0.921875 1.859375q0 1.09375 0.859375 1.65625q0.875 0.546875 3.125 1.046875q2.25 0.5 3.6406555 1.203125q1.40625 0.703125 2.078125 1.6875q0.6875 0.984375 0.6875 2.40625q0 2.359375 -1.890625 3.78125q-1.8906555 1.421875 -4.9062805 1.421875q-2.109375 0 -3.734375 -0.75q-1.625 -0.75 -2.546875 -2.09375q-0.921875 -1.34375 -0.921875 -2.90625l3.015625 0q0.078125 1.515625 1.203125 2.40625q1.140625 0.890625 2.984375 0.890625q1.71875 0 2.75 -0.6875q1.0312805 -0.703125 1.0312805 -1.859375zm14.231689 5.0q-3.578125 0 -5.828125 -2.34375q-2.234375 -2.359375 -2.234375 -6.296875l0 -0.5625q0 -2.609375 1.0 -4.671875q1.0 -2.0625 2.796875 -3.21875q1.796875 -1.171875 3.890625 -1.171875q3.4375 0 5.34375 2.265625q1.90625 2.265625 1.90625 6.484375l0 1.25l-11.921875 0q0.0625 2.59375 1.515625 4.203125q1.453125 1.609375 3.703125 1.609375q1.59375 0 2.703125 -0.65625q1.109375 -0.65625 1.9375 -1.71875l1.828125 1.421875q-2.203125 3.40625 -6.640625 3.40625zm-0.375 -15.78125q-1.8125 0 -3.046875 1.328125q-1.234375 1.3125 -1.53125 3.703125l8.8125 0l0 -0.21875q-0.125 -2.296875 -1.234375 -3.546875q-1.109375 -1.265625 -3.0 -1.265625zm21.609863 15.453125q-0.265625 -0.515625 -0.4375 -1.859375q-2.09375 2.1875 -5.0 2.1875q-2.609375 0 -4.28125 -1.46875q-1.65625 -1.484375 -1.65625 -3.734375q0 -2.75 2.078125 -4.265625q2.09375 -1.53125 5.890625 -1.53125l2.921875 0l0 -1.390625q0 -1.578125 -0.9375 -2.515625q-0.9375 -0.9375 -2.78125 -0.9375q-1.609375 0 -2.703125 0.828125q-1.09375 0.8125 -1.09375 1.96875l-3.03125 0q0 -1.328125 0.9375 -2.546875q0.9375 -1.234375 2.53125 -1.953125q1.609375 -0.71875 3.53125 -0.71875q3.046875 0 4.765625 1.53125q1.734375 1.515625 1.796875 4.1875l0 8.09375q0 2.4375 0.625 3.859375l0 0.265625l-3.15625 0zm-5.0 -2.296875q1.40625 0 2.671875 -0.734375q1.28125 -0.734375 1.84375 -1.90625l0 -3.609375l-2.359375 0q-5.53125 0 -5.53125 3.234375q0 1.421875 0.9375 2.21875q0.953125 0.796875 2.4375 0.796875zm20.769287 -12.609375q-0.6875 -0.109375 -1.484375 -0.109375q-2.96875 0 -4.03125 2.515625l0 12.5l-3.0 0l0 -17.609375l2.921875 0l0.046875 2.03125q1.484375 -2.359375 4.203125 -2.359375q0.875 0 1.34375 0.234375l0 2.796875zm9.515198 12.78125q1.609375 0 2.8125 -0.96875q1.203125 -0.984375 1.328125 -2.453125l2.859375 0q-0.09375 1.515625 -1.046875 2.890625q-0.953125 1.359375 -2.5625 2.171875q-1.609375 0.8125 -3.390625 0.8125q-3.59375 0 -5.71875 -2.390625q-2.125 -2.40625 -2.125 -6.578125l0 -0.5q0 -2.578125 0.9375 -4.578125q0.953125 -2.0 2.71875 -3.109375q1.765625 -1.109375 4.171875 -1.109375q2.953125 0 4.90625 1.78125q1.96875 1.765625 2.109375 4.609375l-2.859375 0q-0.125 -1.71875 -1.296875 -2.8125q-1.15625 -1.09375 -2.859375 -1.09375q-2.296875 0 -3.5625 1.65625q-1.265625 1.640625 -1.265625 4.765625l0 0.5625q0 3.046875 1.25 4.703125q1.265625 1.640625 3.59375 1.640625zm13.38269 -13.34375q2.015625 -2.46875 5.21875 -2.46875q5.578125 0 5.625 6.296875l0 11.640625l-3.015625 0l0 -11.65625q-0.015625 -1.90625 -0.875 -2.8125q-0.84375 -0.90625 -2.65625 -0.90625q-1.453125 0 -2.5625 0.78125q-1.109375 0.78125 -1.734375 2.046875l0 12.546875l-3.0 0l0 -25.0l3.0 0l0 9.53125zm22.888428 6.515625q0 -4.109375 1.90625 -6.546875q1.90625 -2.4375 5.046875 -2.4375q3.21875 0 5.03125 2.28125l0.140625 -1.953125l2.75 0l0 17.1875q0 3.421875 -2.03125 5.390625q-2.015625 1.96875 -5.4375 1.96875q-1.90625 0 -3.734375 -0.8125q-1.8125 -0.8125 -2.78125 -2.234375l1.5625 -1.8125q1.9375 2.390625 4.734375 2.390625q2.203125 0 3.421875 -1.234375q1.234375 -1.234375 1.234375 -3.484375l0 -1.5q-1.796875 2.078125 -4.921875 2.078125q-3.09375 0 -5.015625 -2.484375q-1.90625 -2.5 -1.90625 -6.796875zm3.03125 0.34375q0 2.984375 1.21875 4.6875q1.21875 1.6875 3.421875 1.6875q2.84375 0 4.171875 -2.578125l0 -8.046875q-1.375 -2.515625 -4.140625 -2.515625q-2.203125 0 -3.4375 1.703125q-1.234375 1.703125 -1.234375 5.0625zm15.588867 -0.359375q0 -2.578125 1.015625 -4.640625q1.015625 -2.078125 2.828125 -3.203125q1.8125 -1.125 4.140625 -1.125q3.59375 0 5.8125 2.5q2.234375 2.484375 2.234375 6.625l0 0.203125q0 2.578125 -0.984375 4.625q-0.984375 2.03125 -2.828125 3.171875q-1.828125 1.140625 -4.203125 1.140625q-3.578125 0 -5.796875 -2.484375q-2.21875 -2.5 -2.21875 -6.59375l0 -0.21875zm3.015625 0.359375q0 2.9375 1.359375 4.71875q1.359375 1.765625 3.640625 1.765625q2.296875 0 3.640625 -1.796875q1.359375 -1.8125 1.359375 -5.046875q0 -2.890625 -1.375 -4.6875q-1.375 -1.796875 -3.65625 -1.796875q-2.234375 0 -3.609375 1.78125q-1.359375 1.765625 -1.359375 5.0625zm27.663696 8.609375q-0.265625 -0.515625 -0.4375 -1.859375q-2.09375 2.1875 -5.0 2.1875q-2.609375 0 -4.28125 -1.46875q-1.65625 -1.484375 -1.65625 -3.734375q0 -2.75 2.078125 -4.265625q2.09375 -1.53125 5.890625 -1.53125l2.921875 0l0 -1.390625q0 -1.578125 -0.9375 -2.515625q-0.9375 -0.9375 -2.78125 -0.9375q-1.609375 0 -2.703125 0.828125q-1.09375 0.8125 -1.09375 1.96875l-3.03125 0q0 -1.328125 0.9375 -2.546875q0.9375 -1.234375 2.53125 -1.953125q1.609375 -0.71875 3.53125 -0.71875q3.046875 0 4.765625 1.53125q1.734375 1.515625 1.796875 4.1875l0 8.09375q0 2.4375 0.625 3.859375l0 0.265625l-3.15625 0zm-5.0 -2.296875q1.40625 0 2.671875 -0.734375q1.28125 -0.734375 1.84375 -1.90625l0 -3.609375l-2.359375 0q-5.53125 0 -5.53125 3.234375q0 1.421875 0.9375 2.21875q0.953125 0.796875 2.4375 0.796875zm15.519287 2.296875l-3.015625 0l0 -25.0l3.015625 0l0 25.0z" fill-rule="nonzero"/></g></g></svg>