<svg version="1.1" viewBox="0.0 0.0 974.994750656168 134.8031496062992" fill="none" stroke="none" stroke-linecap="square" stroke-miterlimit="10" xmlns:xlink="http://www.w3.org/1999/xlink" xmlns="http://www.w3.org/2000/svg"><clipPath id="p.0"><path d="m0 0l974.99475 0l0 134.80315l-974.99475 0l0 -134.80315z" clip-rule="nonzero"/></clipPath><g clip-path="url(#p.0)"><path fill="#000000" fill-opacity="0.0" d="m0 0l974.99475 0l0 134.80315l-974.99475 0z" fill-rule="evenodd"/><g filter="url(#shadowFilter-p.1)"><use xlink:href="#p.1" transform="matrix(1.0 0.0 0.0 1.0 0.0 2.0)"/></g><defs><filter id="shadowFilter-p.1" filterUnits="userSpaceOnUse"><feGaussianBlur in="SourceAlpha" stdDeviation="2.0" result="blur"/><feComponentTransfer in="blur" color-interpolation-filters="sRGB"><feFuncR type="linear" slope="0" intercept="0.0"/><feFuncG type="linear" slope="0" intercept="0.0"/><feFuncB type="linear" slope="0" intercept="0.0"/><feFuncA type="linear" slope="0.5" intercept="0"/></feComponentTransfer></filter></defs><g id="p.1"><defs><linearGradient id="p.2" gradientUnits="userSpaceOnUse" gradientTransform="matrix(-11.595698442755552 0.0 0.0 11.595698442755552 0.0 0.0)" spreadMethod="pad" x1="-84.13370523727717" y1="0.003769900853049273" x2="-84.1337476776689" y2="11.599468343530937"><stop offset="0.0" stop-color="#f48208"/><stop offset="1.0" stop-color="#703e08"/></linearGradient></defs><path fill="url(#p.2)" d="m975.5891 22.457142l0 0c0 -12.376645 -10.033264 -22.409897 -22.409912 -22.409897l-930.17236 0c-5.943474 0 -11.643518 2.361036 -15.8461895 6.563707c-4.202671 4.2026706 -6.563707 9.902716 -6.563707 15.846191l0 89.6369c0 12.376648 10.033253 22.409897 22.409897 22.409897l930.17236 0c12.376648 0 22.409912 -10.033249 22.409912 -22.409897z" fill-rule="evenodd"/><path fill="#000000" d="m216.57304 35.58809l7.75 19.328125l7.75 -19.328125l4.046875 0l0 23.6875l-3.125 0l0 -9.234375l0.296875 -9.953125l-7.78125 19.1875l-2.390625 0l-7.765625 -19.140625l0.3125 9.90625l0 9.234375l-3.125 0l0 -23.6875l4.03125 0zm35.472015 23.6875q-0.265625 -0.515625 -0.4375 -1.859375q-2.09375 2.1875 -5.0 2.1875q-2.609375 0 -4.28125 -1.46875q-1.65625 -1.484375 -1.65625 -3.734375q0 -2.75 2.078125 -4.265625q2.09375 -1.53125 5.890625 -1.53125l2.921875 0l0 -1.390625q0 -1.578125 -0.9375 -2.515625q-0.9375 -0.9375 -2.78125 -0.9375q-1.609375 0 -2.703125 0.828125q-1.09375 0.8125 -1.09375 1.96875l-3.03125 0q0 -1.328125 0.9375 -2.546875q0.9375 -1.234375 2.53125 -1.953125q1.609375 -0.71875 3.53125 -0.71875q3.046875 0 4.765625 1.53125q1.734375 1.515625 1.796875 4.1875l0 8.09375q0 2.4375 0.625 3.859375l0 0.265625l-3.15625 0zm-5.0 -2.296875q1.40625 0 2.671875 -0.734375q1.28125 -0.734375 1.84375 -1.90625l0 -3.609375l-2.359375 0q-5.53125 0 -5.53125 3.234375q0 1.421875 0.9375 2.21875q0.953125 0.796875 2.4375 0.796875zm19.316177 0.171875q1.609375 0 2.8125 -0.96875q1.203125 -0.984375 1.328125 -2.453125l2.859375 0q-0.09375 1.515625 -1.046875 2.890625q-0.953125 1.359375 -2.5625 2.171875q-1.609375 0.8125 -3.390625 0.8125q-3.59375 0 -5.71875 -2.390625q-2.125 -2.40625 -2.125 -6.578125l0 -0.5q0 -2.578125 0.9375 -4.578125q0.953125 -2.0 2.71875 -3.109375q1.765625 -1.109375 4.171875 -1.109375q2.953125 0 4.90625 1.78125q1.96875 1.765625 2.109375 4.609375l-2.859375 0q-0.125 -1.71875 -1.296875 -2.8125q-1.15625 -1.09375 -2.859375 -1.09375q-2.296875 0 -3.5625 1.65625q-1.265625 1.640625 -1.265625 4.765625l0 0.5625q0 3.046875 1.25 4.703125q1.265625 1.640625 3.59375 1.640625zm13.38269 -13.34375q2.015625 -2.46875 5.21875 -2.46875q5.578125 0 5.625 6.296875l0 11.640625l-3.015625 0l0 -11.65625q-0.015625 -1.90625 -0.875 -2.8125q-0.84375 -0.90625 -2.65625 -0.90625q-1.453125 0 -2.5625 0.78125q-1.109375 0.78125 -1.734375 2.046875l0 12.546875l-3.0 0l0 -25.0l3.0 0l0 9.53125zm18.622131 15.46875l-3.015625 0l0 -17.609375l3.015625 0l0 17.609375zm-3.25 -22.28125q0 -0.734375 0.4375 -1.234375q0.453125 -0.5 1.328125 -0.5q0.890625 0 1.34375 0.5q0.453125 0.5 0.453125 1.234375q0 0.734375 -0.453125 1.234375q-0.453125 0.484375 -1.34375 0.484375q-0.875 0 -1.328125 -0.484375q-0.4375 -0.5 -0.4375 -1.234375zm10.916077 4.671875l0.09375 2.21875q2.015625 -2.546875 5.28125 -2.546875q5.578125 0 5.625 6.296875l0 11.640625l-3.015625 0l0 -11.65625q-0.015625 -1.90625 -0.875 -2.8125q-0.84375 -0.90625 -2.65625 -0.90625q-1.453125 0 -2.5625 0.78125q-1.109375 0.78125 -1.734375 2.046875l0 12.546875l-3.0 0l0 -17.609375l2.84375 0zm22.842163 17.9375q-3.578125 0 -5.828125 -2.34375q-2.234375 -2.359375 -2.234375 -6.296875l0 -0.5625q0 -2.609375 1.0 -4.671875q1.0 -2.0625 2.796875 -3.21875q1.796875 -1.171875 3.890625 -1.171875q3.4375 0 5.34375 2.265625q1.90625 2.265625 1.90625 6.484375l0 1.25l-11.921875 0q0.0625 2.59375 1.515625 4.203125q1.453125 1.609375 3.703125 1.609375q1.59375 0 2.703125 -0.65625q1.109375 -0.65625 1.9375 -1.71875l1.828125 1.421875q-2.203125 3.40625 -6.640625 3.40625zm-0.375 -15.78125q-1.8125 0 -3.046875 1.328125q-1.234375 1.3125 -1.53125 3.703125l8.8125 0l0 -0.21875q-0.125 -2.296875 -1.234375 -3.546875q-1.109375 -1.265625 -3.0 -1.265625zm22.59494 12.890625l11.234375 0l0 2.5625l-14.375 0l0 -23.6875l3.140625 0l0 21.125zm21.62088 2.890625q-3.578125 0 -5.828125 -2.34375q-2.234375 -2.359375 -2.234375 -6.296875l0 -0.5625q0 -2.609375 1.0 -4.671875q1.0 -2.0625 2.796875 -3.21875q1.796875 -1.171875 3.890625 -1.171875q3.4375 0 5.34375 2.265625q1.90625 2.265625 1.90625 6.484375l0 1.25l-11.921875 0q0.0625 2.59375 1.515625 4.203125q1.453125 1.609375 3.703125 1.609375q1.59375 0 2.703125 -0.65625q1.109375 -0.65625 1.9375 -1.71875l1.828125 1.421875q-2.203125 3.40625 -6.640625 3.40625zm-0.375 -15.78125q-1.8125 0 -3.046875 1.328125q-1.234375 1.3125 -1.53125 3.703125l8.8125 0l0 -0.21875q-0.125 -2.296875 -1.234375 -3.546875q-1.109375 -1.265625 -3.0 -1.265625zm21.609894 15.453125q-0.265625 -0.515625 -0.4375 -1.859375q-2.09375 2.1875 -5.0 2.1875q-2.609375 0 -4.28125 -1.46875q-1.65625 -1.484375 -1.65625 -3.734375q0 -2.75 2.078125 -4.265625q2.09375 -1.53125 5.890625 -1.53125l2.921875 0l0 -1.390625q0 -1.578125 -0.9375 -2.515625q-0.9375 -0.9375 -2.78125 -0.9375q-1.609375 0 -2.703125 0.828125q-1.09375 0.8125 -1.09375 1.96875l-3.03125 0q0 -1.328125 0.9375 -2.546875q0.9375 -1.234375 2.53125 -1.953125q1.609375 -0.71875 3.53125 -0.71875q3.046875 0 4.765625 1.53125q1.734375 1.515625 1.796875 4.1875l0 8.09375q0 2.4375 0.625 3.859375l0 0.265625l-3.15625 0zm-5.0 -2.296875q1.40625 0 2.671875 -0.734375q1.28125 -0.734375 1.84375 -1.90625l0 -3.609375l-2.359375 0q-5.53125 0 -5.53125 3.234375q0 1.421875 0.9375 2.21875q0.953125 0.796875 2.4375 0.796875zm20.769318 -12.609375q-0.6875 -0.109375 -1.484375 -0.109375q-2.96875 0 -4.03125 2.515625l0 12.5l-3.0 0l0 -17.609375l2.921875 0l0.046875 2.03125q1.484375 -2.359375 4.203125 -2.359375q0.875 0 1.34375 0.234375l0 2.796875zm5.605652 -2.703125l0.09375 2.21875q2.015625 -2.546875 5.28125 -2.546875q5.578125 0 5.625 6.296875l0 11.640625l-3.015625 0l0 -11.65625q-0.015625 -1.90625 -0.875 -2.8125q-0.84375 -0.90625 -2.65625 -0.90625q-1.453125 0 -2.5625 0.78125q-1.109375 0.78125 -1.734375 2.046875l0 12.546875l-3.0 0l0 -17.609375l2.84375 0zm18.810913 17.609375l-3.015625 0l0 -17.609375l3.015625 0l0 17.609375zm-3.25 -22.28125q0 -0.734375 0.4375 -1.234375q0.453125 -0.5 1.328125 -0.5q0.890625 0 1.34375 0.5q0.453125 0.5 0.453125 1.234375q0 0.734375 -0.453125 1.234375q-0.453125 0.484375 -1.34375 0.484375q-0.875 0 -1.328125 -0.484375q-0.4375 -0.5 -0.4375 -1.234375zm10.916077 4.671875l0.09375 2.21875q2.015625 -2.546875 5.28125 -2.546875q5.578125 0 5.625 6.296875l0 11.640625l-3.015625 0l0 -11.65625q-0.015625 -1.90625 -0.875 -2.8125q-0.84375 -0.90625 -2.65625 -0.90625q-1.453125 0 -2.5625 0.78125q-1.109375 0.78125 -1.734375 2.046875l0 12.546875l-3.0 0l0 -17.609375l2.84375 0zm14.826538 8.65625q0 -4.109375 1.90625 -6.546875q1.90625 -2.4375 5.046875 -2.4375q3.21875 0 5.03125 2.28125l0.140625 -1.953125l2.75 0l0 17.1875q0 3.421875 -2.03125 5.390625q-2.015625 1.96875 -5.4375 1.96875q-1.90625 0 -3.734375 -0.8125q-1.8125 -0.8125 -2.78125 -2.234375l1.5625 -1.8125q1.9375 2.390625 4.734375 2.390625q2.203125 0 3.421875 -1.234375q1.234375 -1.234375 1.234375 -3.484375l0 -1.5q-1.796875 2.078125 -4.921875 2.078125q-3.09375 0 -5.015625 -2.484375q-1.90625 -2.5 -1.90625 -6.796875zm3.03125 0.34375q0 2.984375 1.21875 4.6875q1.21875 1.6875 3.421875 1.6875q2.84375 0 4.171875 -2.578125l0 -8.046875q-1.375 -2.515625 -4.140625 -2.515625q-2.203125 0 -3.4375 1.703125q-1.234375 1.703125 -1.234375 5.0625zm28.230194 -0.671875l0 9.28125l-3.125 0l0 -23.6875l8.734375 0q3.890625 0 6.09375 1.984375q2.203125 1.984375 2.203125 5.25q0 3.453125 -2.15625 5.3125q-2.15625 1.859375 -6.171875 1.859375l-5.578125 0zm0 -2.546875l5.609375 0q2.515625 0 3.84375 -1.171875q1.34375 -1.1875 1.34375 -3.421875q0 -2.109375 -1.34375 -3.375q-1.328125 -1.28125 -3.65625 -1.328125l-5.796875 0l0 9.296875zm25.947205 -3.078125q-0.6875 -0.109375 -1.484375 -0.109375q-2.9687195 0 -4.0312195 2.515625l0 12.5l-3.0 0l0 -17.609375l2.921875 0l0.046875 2.03125q1.484375 -2.359375 4.2030945 -2.359375q0.875 0 1.34375 0.234375l0 2.796875zm1.6395264 5.9375q0 -2.578125 1.015625 -4.640625q1.015625 -2.078125 2.828125 -3.203125q1.8125 -1.125 4.140625 -1.125q3.59375 0 5.8125 2.5q2.234375 2.484375 2.234375 6.625l0 0.203125q0 2.578125 -0.984375 4.625q-0.984375 2.03125 -2.828125 3.171875q-1.828125 1.140625 -4.203125 1.140625q-3.578125 0 -5.796875 -2.484375q-2.21875 -2.5 -2.21875 -6.59375l0 -0.21875zm3.015625 0.359375q0 2.9375 1.359375 4.71875q1.359375 1.765625 3.640625 1.765625q2.296875 0 3.640625 -1.796875q1.359375 -1.8125 1.359375 -5.046875q0 -2.890625 -1.375 -4.6875q-1.375 -1.796875 -3.65625 -1.796875q-2.234375 0 -3.609375 1.78125q-1.359375 1.765625 -1.359375 5.0625zm23.851196 6.484375q1.609375 0 2.8125 -0.96875q1.203125 -0.984375 1.328125 -2.453125l2.859375 0q-0.09375 1.515625 -1.046875 2.890625q-0.953125 1.359375 -2.5625 2.171875q-1.609375 0.8125 -3.390625 0.8125q-3.59375 0 -5.71875 -2.390625q-2.125 -2.40625 -2.125 -6.578125l0 -0.5q0 -2.578125 0.9375 -4.578125q0.953125 -2.0 2.71875 -3.109375q1.765625 -1.109375 4.171875 -1.109375q2.953125 0 4.90625 1.78125q1.96875 1.765625 2.109375 4.609375l-2.859375 0q-0.125 -1.71875 -1.296875 -2.8125q-1.15625 -1.09375 -2.859375 -1.09375q-2.296875 0 -3.5625 1.65625q-1.265625 1.640625 -1.265625 4.765625l0 0.5625q0 3.046875 1.25 4.703125q1.265625 1.640625 3.59375 1.640625zm17.679565 2.453125q-3.578125 0 -5.828125 -2.34375q-2.234375 -2.359375 -2.234375 -6.296875l0 -0.5625q0 -2.609375 1.0 -4.671875q1.0 -2.0625 2.796875 -3.21875q1.796875 -1.171875 3.890625 -1.171875q3.4375 0 5.34375 2.265625q1.90625 2.265625 1.90625 6.484375l0 1.25l-11.921875 0q0.0625 2.59375 1.515625 4.203125q1.453125 1.609375 3.703125 1.609375q1.59375 0 2.703125 -0.65625q1.109375 -0.65625 1.9375 -1.71875l1.828125 1.421875q-2.203125 3.40625 -6.640625 3.40625zm-0.375 -15.78125q-1.8125 0 -3.046875 1.328125q-1.234375 1.3125 -1.53125 3.703125l8.8125 0l0 -0.21875q-0.125 -2.296875 -1.234375 -3.546875q-1.109375 -1.265625 -3.0 -1.265625zm20.984924 10.78125q0 -1.21875 -0.921875 -1.890625q-0.921875 -0.671875 -3.203125 -1.15625q-2.28125 -0.5 -3.625 -1.171875q-1.34375 -0.6875 -2.0 -1.625q-0.640625 -0.953125 -0.640625 -2.265625q0 -2.15625 1.828125 -3.65625q1.84375 -1.5 4.6875 -1.5q3.0 0 4.859375 1.546875q1.859375 1.546875 1.859375 3.953125l-3.015625 0q0 -1.234375 -1.0625 -2.125q-1.046875 -0.890625 -2.640625 -0.890625q-1.640625 0 -2.578125 0.71875q-0.921875 0.703125 -0.921875 1.859375q0 1.09375 0.859375 1.65625q0.875 0.546875 3.125 1.046875q2.25 0.5 3.640625 1.203125q1.40625 0.703125 2.078125 1.6875q0.6875 0.984375 0.6875 2.40625q0 2.359375 -1.890625 3.78125q-1.890625 1.421875 -4.90625 1.421875q-2.109375 0 -3.734375 -0.75q-1.625 -0.75 -2.546875 -2.09375q-0.921875 -1.34375 -0.921875 -2.90625l3.015625 0q0.078125 1.515625 1.203125 2.40625q1.140625 0.890625 2.984375 0.890625q1.71875 0 2.75 -0.6875q1.03125 -0.703125 1.03125 -1.859375zm17.184814 0q0 -1.21875 -0.921875 -1.890625q-0.921875 -0.671875 -3.203125 -1.15625q-2.28125 -0.5 -3.625 -1.171875q-1.34375 -0.6875 -2.0 -1.625q-0.640625 -0.953125 -0.640625 -2.265625q0 -2.15625 1.828125 -3.65625q1.84375 -1.5 4.6875 -1.5q3.0 0 4.859375 1.546875q1.859375 1.546875 1.859375 3.953125l-3.015625 0q0 -1.234375 -1.0625 -2.125q-1.046875 -0.890625 -2.640625 -0.890625q-1.640625 0 -2.578125 0.71875q-0.921875 0.703125 -0.921875 1.859375q0 1.09375 0.859375 1.65625q0.875 0.546875 3.125 1.046875q2.25 0.5 3.640625 1.203125q1.40625 0.703125 2.078125 1.6875q0.6875 0.984375 0.6875 2.40625q0 2.359375 -1.890625 3.78125q-1.890625 1.421875 -4.90625 1.421875q-2.109375 0 -3.734375 -0.75q-1.625 -0.75 -2.546875 -2.09375q-0.921875 -1.34375 -0.921875 -2.90625l3.015625 0q0.078125 1.515625 1.203125 2.40625q1.140625 0.890625 2.984375 0.890625q1.71875 0 2.75 -0.6875q1.03125 -0.703125 1.03125 -1.859375zm21.45105 -4.171875l-7.9375 0l0 -2.453125l7.9375 0l0 2.453125zm14.773315 -0.4375l0 9.28125l-3.125 0l0 -23.6875l8.734375 0q3.890625 0 6.09375 1.984375q2.203125 1.984375 2.203125 5.25q0 3.453125 -2.15625 5.3125q-2.15625 1.859375 -6.171875 1.859375l-5.578125 0zm0 -2.546875l5.609375 0q2.515625 0 3.84375 -1.171875q1.34375 -1.1875 1.34375 -3.421875q0 -2.109375 -1.34375 -3.375q-1.328125 -1.28125 -3.65625 -1.328125l-5.796875 0l0 9.296875zm28.127563 11.828125q-0.265625 -0.515625 -0.4375 -1.859375q-2.09375 2.1875 -5.0 2.1875q-2.609375 0 -4.28125 -1.46875q-1.65625 -1.484375 -1.65625 -3.734375q0 -2.75 2.078125 -4.265625q2.09375 -1.53125 5.890625 -1.53125l2.921875 0l0 -1.390625q0 -1.578125 -0.9375 -2.515625q-0.9375 -0.9375 -2.78125 -0.9375q-1.609375 0 -2.703125 0.828125q-1.09375 0.8125 -1.09375 1.96875l-3.03125 0q0 -1.328125 0.9375 -2.546875q0.9375 -1.234375 2.53125 -1.953125q1.609375 -0.71875 3.53125 -0.71875q3.046875 0 4.765625 1.53125q1.734375 1.515625 1.796875 4.1875l0 8.09375q0 2.4375 0.625 3.859375l0 0.265625l-3.15625 0zm-5.0 -2.296875q1.40625 0 2.671875 -0.734375q1.28125 -0.734375 1.84375 -1.90625l0 -3.609375l-2.359375 0q-5.53125 0 -5.53125 3.234375q0 1.421875 0.9375 2.21875q0.953125 0.796875 2.4375 0.796875zm22.503662 -2.375q0 -1.21875 -0.921875 -1.890625q-0.921875 -0.671875 -3.203125 -1.15625q-2.28125 -0.5 -3.625 -1.171875q-1.34375 -0.6875 -2.0 -1.625q-0.640625 -0.953125 -0.640625 -2.265625q0 -2.15625 1.828125 -3.65625q1.84375 -1.5 4.6875 -1.5q3.0 0 4.859375 1.546875q1.859375 1.546875 1.859375 3.953125l-3.015625 0q0 -1.234375 -1.0625 -2.125q-1.046875 -0.890625 -2.640625 -0.890625q-1.640625 0 -2.578125 0.71875q-0.921875 0.703125 -0.921875 1.859375q0 1.09375 0.859375 1.65625q0.875 0.546875 3.125 1.046875q2.25 0.5 3.640625 1.203125q1.40625 0.703125 2.078125 1.6875q0.6875 0.984375 0.6875 2.40625q0 2.359375 -1.890625 3.78125q-1.890625 1.421875 -4.90625 1.421875q-2.109375 0 -3.734375 -0.75q-1.625 -0.75 -2.546875 -2.09375q-0.921875 -1.34375 -0.921875 -2.90625l3.015625 0q0.078125 1.515625 1.203125 2.40625q1.140625 0.890625 2.984375 0.890625q1.71875 0 2.75 -0.6875q1.03125 -0.703125 1.03125 -1.859375zm17.184814 0q0 -1.21875 -0.921875 -1.890625q-0.921875 -0.671875 -3.203125 -1.15625q-2.28125 -0.5 -3.625 -1.171875q-1.34375 -0.6875 -2.0 -1.625q-0.640625 -0.953125 -0.640625 -2.265625q0 -2.15625 1.828125 -3.65625q1.84375 -1.5 4.6875 -1.5q3.0 0 4.859375 1.546875q1.859375 1.546875 1.859375 3.953125l-3.015625 0q0 -1.234375 -1.0625 -2.125q-1.046875 -0.890625 -2.640625 -0.890625q-1.640625 0 -2.578125 0.71875q-0.921875 0.703125 -0.921875 1.859375q0 1.09375 0.859375 1.65625q0.875 0.546875 3.125 1.046875q2.25 0.5 3.640625 1.203125q1.40625 0.703125 2.078125 1.6875q0.6875 0.984375 0.6875 2.40625q0 2.359375 -1.890625 3.78125q-1.890625 1.421875 -4.90625 1.421875q-2.109375 0 -3.734375 -0.75q-1.625 -0.75 -2.546875 -2.09375q-0.921875 -1.34375 -0.921875 -2.90625l3.015625 0q0.078125 1.515625 1.203125 2.40625q1.140625 0.890625 2.984375 0.890625q1.71875 0 2.75 -0.6875q1.03125 -0.703125 1.03125 -1.859375zm6.1379395 -4.296875q0 -2.578125 1.015625 -4.640625q1.015625 -2.078125 2.828125 -3.203125q1.8125 -1.125 4.140625 -1.125q3.59375 0 5.8125 2.5q2.234375 2.484375 2.234375 6.625l0 0.203125q0 2.578125 -0.984375 4.625q-0.984375 2.03125 -2.828125 3.171875q-1.828125 1.140625 -4.203125 1.140625q-3.578125 0 -5.796875 -2.484375q-2.21875 -2.5 -2.21875 -6.59375l0 -0.21875zm3.015625 0.359375q0 2.9375 1.359375 4.71875q1.359375 1.765625 3.640625 1.765625q2.296875 0 3.640625 -1.796875q1.359375 -1.8125 1.359375 -5.046875q0 -2.890625 -1.375 -4.6875q-1.375 -1.796875 -3.65625 -1.796875q-2.234375 0 -3.609375 1.78125q-1.359375 1.765625 -1.359375 5.0625zm27.883179 -9.0l0.09375 2.21875q2.015625 -2.546875 5.28125 -2.546875q5.578125 0 5.625 6.296875l0 11.640625l-3.015625 0l0 -11.65625q-0.015625 -1.90625 -0.875 -2.8125q-0.84375 -0.90625 -2.65625 -0.90625q-1.453125 0 -2.5625 0.78125q-1.109375 0.78125 -1.734375 2.046875l0 12.546875l-3.0 0l0 -17.609375l2.84375 0zm15.607788 16.03125q0 -0.78125 0.453125 -1.296875q0.46875 -0.53125 1.390625 -0.53125q0.9375 0 1.421875 0.53125q0.484375 0.515625 0.484375 1.296875q0 0.75 -0.484375 1.25q-0.484375 0.5 -1.421875 0.5q-0.921875 0 -1.390625 -0.5q-0.453125 -0.5 -0.453125 -1.25zm21.099487 -6.375l3.296875 0l0 2.453125l-3.296875 0l0 5.5l-3.015625 0l0 -5.5l-10.796875 0l0 -1.78125l10.609375 -16.40625l3.203125 0l0 15.734375zm-10.390625 0l7.375 0l0 -11.625l-0.359375 0.65625l-7.015625 10.96875z" fill-rule="nonzero"/><path fill="#000000" d="m280.51376 88.322464l-10.265625 0l0 8.390625l11.921875 0l0 2.5625l-15.046875 0l0 -23.6875l14.890625 0l0 2.5625l-11.765625 0l0 7.625l10.265625 0l0 2.546875zm10.989227 -0.234375l3.90625 -6.421875l3.515625 0l-5.765625 8.703125l5.9375 8.90625l-3.484375 0l-4.0625 -6.59375l-4.0625 6.59375l-3.5 0l5.9375 -8.90625l-5.765625 -8.703125l3.484375 0l3.859375 6.421875zm25.486359 2.578125q0 4.015625 -1.84375 6.484375q-1.84375 2.453125 -4.984375 2.453125q-3.203125 0 -5.046875 -2.03125l0 8.46875l-3.0 0l0 -24.375l2.75 0l0.140625 1.953125q1.84375 -2.28125 5.109375 -2.28125q3.171875 0 5.015625 2.390625q1.859375 2.390625 1.859375 6.65625l0 0.28125zm-3.015625 -0.34375q0 -2.96875 -1.265625 -4.6875q-1.265625 -1.734375 -3.484375 -1.734375q-2.734375 0 -4.109375 2.421875l0 8.40625q1.359375 2.421875 4.140625 2.421875q2.171875 0 3.4375 -1.71875q1.28125 -1.71875 1.28125 -5.109375zm10.104492 8.953125l-3.015625 0l0 -25.0l3.015625 0l0 25.0zm4.0254517 -8.96875q0 -2.578125 1.015625 -4.640625q1.015625 -2.078125 2.828125 -3.203125q1.8125 -1.125 4.140625 -1.125q3.59375 0 5.8125 2.5q2.234375 2.484375 2.234375 6.625l0 0.203125q0 2.578125 -0.984375 4.625q-0.984375 2.03125 -2.828125 3.171875q-1.828125 1.140625 -4.203125 1.140625q-3.578125 0 -5.796875 -2.484375q-2.21875 -2.5 -2.21875 -6.59375l0 -0.21875zm3.015625 0.359375q0 2.9375 1.359375 4.71875q1.359375 1.765625 3.640625 1.765625q2.296875 0 3.640625 -1.796875q1.359375 -1.8125 1.359375 -5.046875q0 -2.890625 -1.375 -4.6875q-1.375 -1.796875 -3.65625 -1.796875q-2.234375 0 -3.609375 1.78125q-1.359375 1.765625 -1.359375 5.0625zm25.304321 -6.296875q-0.6875 -0.109375 -1.484375 -0.109375q-2.96875 0 -4.03125 2.515625l0 12.5l-3.0 0l0 -17.609375l2.921875 0l0.046875 2.03125q1.484375 -2.359375 4.203125 -2.359375q0.875 0 1.34375 0.234375l0 2.796875zm12.98587 14.90625q-0.265625 -0.515625 -0.4375 -1.859375q-2.09375 2.1875 -5.0 2.1875q-2.609375 0 -4.28125 -1.46875q-1.65625 -1.484375 -1.65625 -3.734375q0 -2.75 2.078125 -4.265625q2.09375 -1.53125 5.890625 -1.53125l2.921875 0l0 -1.390625q0 -1.578125 -0.9375 -2.515625q-0.9375 -0.9375 -2.78125 -0.9375q-1.609375 0 -2.703125 0.828125q-1.09375 0.8125 -1.09375 1.96875l-3.03125 0q0 -1.328125 0.9375 -2.546875q0.9375 -1.234375 2.53125 -1.953125q1.609375 -0.71875 3.53125 -0.71875q3.046875 0 4.765625 1.53125q1.734375 1.515625 1.796875 4.1875l0 8.09375q0 2.4375 0.625 3.859375l0 0.265625l-3.15625 0zm-5.0 -2.296875q1.40625 0 2.671875 -0.734375q1.28125 -0.734375 1.84375 -1.90625l0 -3.609375l-2.359375 0q-5.53125 0 -5.53125 3.234375q0 1.421875 0.9375 2.21875q0.953125 0.796875 2.4375 0.796875zm16.331818 -19.578125l0 4.265625l3.296875 0l0 2.328125l-3.296875 0l0 10.921875q0 1.0625 0.4375 1.59375q0.4375 0.515625 1.5 0.515625q0.515625 0 1.4375 -0.1875l0 2.4375q-1.1875 0.328125 -2.3125 0.328125q-2.015625 0 -3.046875 -1.21875q-1.015625 -1.21875 -1.015625 -3.46875l0 -10.921875l-3.21875 0l0 -2.328125l3.21875 0l0 -4.265625l3.0 0zm5.6864624 12.90625q0 -2.578125 1.015625 -4.640625q1.015625 -2.078125 2.828125 -3.203125q1.8125 -1.125 4.140625 -1.125q3.59375 0 5.8125 2.5q2.234375 2.484375 2.234375 6.625l0 0.203125q0 2.578125 -0.984375 4.625q-0.984375 2.03125 -2.828125 3.171875q-1.828125 1.140625 -4.203125 1.140625q-3.578125 0 -5.796875 -2.484375q-2.21875 -2.5 -2.21875 -6.59375l0 -0.21875zm3.015625 0.359375q0 2.9375 1.359375 4.71875q1.359375 1.765625 3.640625 1.765625q2.296875 0 3.640625 -1.796875q1.359375 -1.8125 1.359375 -5.046875q0 -2.890625 -1.375 -4.6875q-1.375 -1.796875 -3.65625 -1.796875q-2.234375 0 -3.609375 1.78125q-1.359375 1.765625 -1.359375 5.0625zm25.304321 -6.296875q-0.6875 -0.109375 -1.484375 -0.109375q-2.96875 0 -4.03125 2.515625l0 12.5l-3.0 0l0 -17.609375l2.921875 0l0.046875 2.03125q1.484375 -2.359375 4.203125 -2.359375q0.875 0 1.34375 0.234375l0 2.796875zm8.820496 10.5l4.09375 -13.203125l3.21875 0l-7.078125 20.328125q-1.640625 4.390625 -5.21875 4.390625l-0.578125 -0.046875l-1.125 -0.21875l0 -2.4375l0.828125 0.0625q1.515625 0 2.375 -0.625q0.859375 -0.609375 1.40625 -2.25l0.671875 -1.78125l-6.28125 -17.421875l3.28125 0l4.40625 13.203125zm18.72284 4.40625l0 -23.6875l6.6875 0q3.09375 0 5.46875 1.375q2.375 1.359375 3.671875 3.875q1.296875 2.515625 1.3125 5.796875l0 1.515625q0 3.34375 -1.296875 5.875q-1.296875 2.515625 -3.703125 3.875q-2.390625 1.34375 -5.578125 1.375l-6.5625 0zm3.125 -21.125l0 18.5625l3.28125 0q3.625 0 5.625 -2.234375q2.015625 -2.25 2.015625 -6.40625l0 -1.375q0 -4.03125 -1.90625 -6.265625q-1.890625 -2.25 -5.375 -2.28125l-3.640625 0zm29.136536 21.125q-0.265625 -0.515625 -0.4375 -1.859375q-2.09375 2.1875 -5.0 2.1875q-2.609375 0 -4.28125 -1.46875q-1.65625 -1.484375 -1.65625 -3.734375q0 -2.75 2.078125 -4.265625q2.09375 -1.53125 5.890625 -1.53125l2.921875 0l0 -1.390625q0 -1.578125 -0.9375 -2.515625q-0.9375 -0.9375 -2.78125 -0.9375q-1.609375 0 -2.703125 0.828125q-1.09375 0.8125 -1.09375 1.96875l-3.03125 0q0 -1.328125 0.9375 -2.546875q0.9375 -1.234375 2.53125 -1.953125q1.609375 -0.71875 3.53125 -0.71875q3.046875 0 4.765625 1.53125q1.734375 1.515625 1.796875 4.1875l0 8.09375q0 2.4375 0.625 3.859375l0 0.265625l-3.15625 0zm-5.0 -2.296875q1.40625 0 2.671875 -0.734375q1.28125 -0.734375 1.84375 -1.90625l0 -3.609375l-2.359375 0q-5.53125 0 -5.53125 3.234375q0 1.421875 0.9375 2.21875q0.953125 0.796875 2.4375 0.796875zm16.331818 -19.578125l0 4.265625l3.296875 0l0 2.328125l-3.296875 0l0 10.921875q0 1.0625 0.4375 1.59375q0.4375 0.515625 1.5 0.515625q0.515625 0 1.4375 -0.1875l0 2.4375q-1.1875 0.328125 -2.3125 0.328125q-2.015625 0 -3.046875 -1.21875q-1.015625 -1.21875 -1.015625 -3.46875l0 -10.921875l-3.21875 0l0 -2.328125l3.21875 0l0 -4.265625l3.0 0zm17.683868 21.875q-0.265625 -0.515625 -0.4375 -1.859375q-2.09375 2.1875 -5.0 2.1875q-2.609375 0 -4.28125 -1.46875q-1.65625 -1.484375 -1.65625 -3.734375q0 -2.75 2.078125 -4.265625q2.09375 -1.53125 5.890625 -1.53125l2.921875 0l0 -1.390625q0 -1.578125 -0.9375 -2.515625q-0.9375 -0.9375 -2.78125 -0.9375q-1.609375 0 -2.703125 0.828125q-1.09375 0.8125 -1.09375 1.96875l-3.03125 0q0 -1.328125 0.9375 -2.546875q0.9375 -1.234375 2.53125 -1.953125q1.609375 -0.71875 3.53125 -0.71875q3.046875 0 4.765625 1.53125q1.734375 1.515625 1.796875 4.1875l0 8.09375q0 2.4375 0.625 3.859375l0 0.265625l-3.15625 0zm-5.0 -2.296875q1.40625 0 2.671875 -0.734375q1.28125 -0.734375 1.84375 -1.90625l0 -3.609375l-2.359375 0q-5.53125 0 -5.53125 3.234375q0 1.421875 0.9375 2.21875q0.953125 0.796875 2.4375 0.796875zm34.051178 -3.890625l-9.921875 0l-2.234375 6.1875l-3.21875 0l9.046875 -23.6875l2.734375 0l9.0625 23.6875l-3.203125 0l-2.265625 -6.1875zm-8.984375 -2.5625l8.0625 0l-4.03125 -11.09375l-4.03125 11.09375zm20.022644 -8.859375l0.09375 2.21875q2.015625 -2.546875 5.28125 -2.546875q5.578125 0 5.625 6.296875l0 11.640625l-3.015625 0l0 -11.65625q-0.015625 -1.90625 -0.875 -2.8125q-0.84375 -0.90625 -2.65625 -0.90625q-1.453125 0 -2.5625 0.78125q-1.109375 0.78125 -1.734375 2.046875l0 12.546875l-3.0 0l0 -17.609375l2.84375 0zm26.420288 17.609375q-0.265625 -0.515625 -0.4375 -1.859375q-2.09375 2.1875 -5.0 2.1875q-2.609375 0 -4.28125 -1.46875q-1.65625 -1.484375 -1.65625 -3.734375q0 -2.75 2.078125 -4.265625q2.09375 -1.53125 5.890625 -1.53125l2.921875 0l0 -1.390625q0 -1.578125 -0.9375 -2.515625q-0.9375 -0.9375 -2.78125 -0.9375q-1.609375 0 -2.703125 0.828125q-1.09375 0.8125 -1.09375 1.96875l-3.03125 0q0 -1.328125 0.9375 -2.546875q0.9375 -1.234375 2.53125 -1.953125q1.609375 -0.71875 3.53125 -0.71875q3.046875 0 4.765625 1.53125q1.734375 1.515625 1.796875 4.1875l0 8.09375q0 2.4375 0.625 3.859375l0 0.265625l-3.15625 0zm-5.0 -2.296875q1.40625 0 2.671875 -0.734375q1.28125 -0.734375 1.84375 -1.90625l0 -3.609375l-2.359375 0q-5.53125 0 -5.53125 3.234375q0 1.421875 0.9375 2.21875q0.953125 0.796875 2.4375 0.796875zm15.519287 2.296875l-3.015625 0l0 -25.0l3.015625 0l0 25.0zm10.587952 -4.40625l4.09375 -13.203125l3.21875 0l-7.078125 20.328125q-1.640625 4.390625 -5.21875 4.390625l-0.578125 -0.046875l-1.125 -0.21875l0 -2.4375l0.828125 0.0625q1.515625 0 2.375 -0.625q0.859375 -0.609375 1.40625 -2.25l0.671875 -1.78125l-6.28125 -17.421875l3.28125 0l4.40625 13.203125zm20.253418 -0.265625q0 -1.21875 -0.921875 -1.890625q-0.921875 -0.671875 -3.203125 -1.15625q-2.28125 -0.5 -3.625 -1.171875q-1.34375 -0.6875 -2.0 -1.625q-0.640625 -0.953125 -0.640625 -2.265625q0 -2.15625 1.828125 -3.65625q1.84375 -1.5 4.6875 -1.5q3.0 0 4.859375 1.546875q1.859375 1.546875 1.859375 3.953125l-3.015625 0q0 -1.234375 -1.0625 -2.125q-1.046875 -0.890625 -2.640625 -0.890625q-1.640625 0 -2.578125 0.71875q-0.921875 0.703125 -0.921875 1.859375q0 1.09375 0.859375 1.65625q0.875 0.546875 3.125 1.046875q2.25 0.5 3.640625 1.203125q1.40625 0.703125 2.078125 1.6875q0.6875 0.984375 0.6875 2.40625q0 2.359375 -1.890625 3.78125q-1.890625 1.421875 -4.90625 1.421875q-2.109375 0 -3.734375 -0.75q-1.625 -0.75 -2.546875 -2.09375q-0.921875 -1.34375 -0.921875 -2.90625l3.015625 0q0.078125 1.515625 1.203125 2.40625q1.140625 0.890625 2.984375 0.890625q1.71875 0 2.75 -0.6875q1.03125 -0.703125 1.03125 -1.859375zm10.200439 4.671875l-3.015625 0l0 -17.609375l3.015625 0l0 17.609375zm-3.25 -22.28125q0 -0.734375 0.4375 -1.234375q0.453125 -0.5 1.328125 -0.5q0.890625 0 1.34375 0.5q0.453125 0.5 0.453125 1.234375q0 0.734375 -0.453125 1.234375q-0.453125 0.484375 -1.34375 0.484375q-0.875 0 -1.328125 -0.484375q-0.4375 -0.5 -0.4375 -1.234375zm18.322327 17.609375q0 -1.21875 -0.921875 -1.890625q-0.921875 -0.671875 -3.203125 -1.15625q-2.28125 -0.5 -3.625 -1.171875q-1.34375 -0.6875 -2.0 -1.625q-0.640625 -0.953125 -0.640625 -2.265625q0 -2.15625 1.828125 -3.65625q1.84375 -1.5 4.6875 -1.5q3.0 0 4.859375 1.546875q1.859375 1.546875 1.859375 3.953125l-3.015625 0q0 -1.234375 -1.0625 -2.125q-1.046875 -0.890625 -2.640625 -0.890625q-1.640625 0 -2.578125 0.71875q-0.921875 0.703125 -0.921875 1.859375q0 1.09375 0.859375 1.65625q0.875 0.546875 3.125 1.046875q2.25 0.5 3.640625 1.203125q1.40625 0.703125 2.078125 1.6875q0.6875 0.984375 0.6875 2.40625q0 2.359375 -1.890625 3.78125q-1.890625 1.421875 -4.90625 1.421875q-2.109375 0 -3.734375 -0.75q-1.625 -0.75 -2.546875 -2.09375q-0.921875 -1.34375 -0.921875 -2.90625l3.015625 0q0.078125 1.515625 1.203125 2.40625q1.140625 0.890625 2.984375 0.890625q1.71875 0 2.75 -0.6875q1.03125 -0.703125 1.03125 -1.859375zm29.04486 -6.28125l-10.265625 0l0 8.390625l11.921875 0l0 2.5625l-15.046875 0l0 -23.6875l14.890625 0l0 2.5625l-11.765625 0l0 7.625l10.265625 0l0 2.546875zm5.551758 10.953125l0 -23.6875l6.6875 0q3.09375 0 5.46875 1.375q2.375 1.359375 3.671875 3.875q1.296875 2.515625 1.3125 5.796875l0 1.515625q0 3.34375 -1.296875 5.875q-1.296875 2.515625 -3.703125 3.875q-2.390625 1.34375 -5.578125 1.375l-6.5625 0zm3.125 -21.125l0 18.5625l3.28125 0q3.625 0 5.625 -2.234375q2.015625 -2.25 2.015625 -6.40625l0 -1.375q0 -4.03125 -1.90625 -6.265625q-1.890625 -2.25 -5.375 -2.28125l-3.640625 0zm31.466614 14.9375l-9.921875 0l-2.234375 6.1875l-3.21875 0l9.046875 -23.6875l2.734375 0l9.0625 23.6875l-3.203125 0l-2.265625 -6.1875zm-8.984375 -2.5625l8.0625 0l-4.03125 -11.09375l-4.03125 11.09375z" fill-rule="nonzero"/></g></g></svg>