<svg version="1.1" viewBox="0.0 0.0 939.4724409448819 135.1994750656168" fill="none" stroke="none" stroke-linecap="square" stroke-miterlimit="10" xmlns:xlink="http://www.w3.org/1999/xlink" xmlns="http://www.w3.org/2000/svg"><clipPath id="p.0"><path d="m0 0l939.4724 0l0 135.19948l-939.4724 0l0 -135.19948z" clip-rule="nonzero"/></clipPath><g clip-path="url(#p.0)"><path fill="#000000" fill-opacity="0.0" d="m0 0l939.4724 0l0 135.19948l-939.4724 0z" fill-rule="evenodd"/><g filter="url(#shadowFilter-p.1)"><use xlink:href="#p.1" transform="matrix(1.0 0.0 0.0 1.0 0.0 2.0)"/></g><defs><filter id="shadowFilter-p.1" filterUnits="userSpaceOnUse"><feGaussianBlur in="SourceAlpha" stdDeviation="2.0" result="blur"/><feComponentTransfer in="blur" color-interpolation-filters="sRGB"><feFuncR type="linear" slope="0" intercept="0.0"/><feFuncG type="linear" slope="0" intercept="0.0"/><feFuncB type="linear" slope="0" intercept="0.0"/><feFuncA type="linear" slope="0.5" intercept="0"/></feComponentTransfer></filter></defs><g id="p.1"><defs><radialGradient id="p.2" gradientUnits="userSpaceOnUse" gradientTransform="matrix(-30.740601491390724 0.0 0.0 30.740601491390724 0.0 0.0)" spreadMethod="pad" cx="-3.3597533843117814E-5" cy="0.0" fx="-3.3597533843117814E-5" fy="0.0" r="30.7406005859375"><stop offset="0.0" stop-color="#51ab2a"/><stop offset="0.64" stop-color="#39751f"/><stop offset="1.0" stop-color="#203e13"/></radialGradient></defs><path fill="url(#p.2)" d="m935.3711 22.409897l0 0c0 -12.376644 -10.033264 -22.409897 -22.409851 -22.409897l-890.5503 0c-5.9434757 0 -11.64352 2.3610358 -15.846191 6.563707c-4.202671 4.2026706 -6.563707 9.902716 -6.563707 15.8461895l0 89.6369c0 12.37664 10.033253 22.409897 22.409899 22.409897l890.5503 0c12.376587 0 22.409851 -10.033257 22.409851 -22.409897z" fill-rule="evenodd"/><path fill="#212121" d="m200.16608 18.540846l7.75 19.328123l7.75 -19.328123l4.046875 0l0 23.687498l-3.125 0l0 -9.234375l0.296875 -9.953123l-7.78125 19.187498l-2.390625 0l-7.765625 -19.140623l0.3125 9.906248l0 9.234375l-3.125 0l0 -23.687498l4.03125 0zm35.472015 23.687498q-0.265625 -0.515625 -0.4375 -1.859375q-2.09375 2.1875 -5.0 2.1875q-2.609375 0 -4.28125 -1.46875q-1.65625 -1.484375 -1.65625 -3.734375q0 -2.75 2.078125 -4.265625q2.09375 -1.5312481 5.890625 -1.5312481l2.921875 0l0 -1.390625q0 -1.578125 -0.9375 -2.515625q-0.9375 -0.9375 -2.78125 -0.9375q-1.609375 0 -2.703125 0.828125q-1.09375 0.8125 -1.09375 1.96875l-3.03125 0q0 -1.328125 0.9375 -2.546875q0.9375 -1.234375 2.53125 -1.953125q1.609375 -0.71875 3.53125 -0.71875q3.046875 0 4.765625 1.53125q1.734375 1.515625 1.796875 4.1875l0 8.093748q0 2.4375 0.625 3.859375l0 0.265625l-3.15625 0zm-5.0 -2.296875q1.40625 0 2.671875 -0.734375q1.28125 -0.734375 1.84375 -1.90625l0 -3.609375l-2.359375 0q-5.53125 0 -5.53125 3.234375q0 1.421875 0.9375 2.21875q0.953125 0.796875 2.4375 0.796875zm19.316177 0.171875q1.609375 0 2.8125 -0.96875q1.203125 -0.984375 1.328125 -2.453125l2.8593903 0q-0.09375 1.515625 -1.0468903 2.890625q-0.953125 1.359375 -2.5625 2.171875q-1.609375 0.8125 -3.390625 0.8125q-3.59375 0 -5.71875 -2.390625q-2.125 -2.40625 -2.125 -6.578125l0 -0.5q0 -2.578123 0.9375 -4.578123q0.953125 -2.0 2.71875 -3.109375q1.765625 -1.109375 4.171875 -1.109375q2.953125 0 4.90625 1.78125q1.9687653 1.765625 2.1093903 4.609375l-2.8593903 0q-0.125 -1.71875 -1.296875 -2.8125q-1.15625 -1.09375 -2.859375 -1.09375q-2.296875 0 -3.5625 1.65625q-1.265625 1.640625 -1.265625 4.765623l0 0.5625q0 3.046875 1.25 4.703125q1.265625 1.640625 3.59375 1.640625zm13.382675 -13.343748q2.015625 -2.46875 5.21875 -2.46875q5.578125 0 5.625 6.296875l0 11.640623l-3.015625 0l0 -11.656248q-0.015625 -1.90625 -0.875 -2.8125q-0.84375 -0.90625 -2.65625 -0.90625q-1.453125 0 -2.5625 0.78125q-1.109375 0.78125 -1.734375 2.046875l0 12.546873l-2.9999695 0l0 -24.999998l2.9999695 0l0 9.53125zm18.622131 15.468748l-3.015625 0l0 -17.609373l3.015625 0l0 17.609373zm-3.25 -22.281248q0 -0.734375 0.4375 -1.234375q0.453125 -0.5 1.328125 -0.5q0.890625 0 1.34375 0.5q0.453125 0.5 0.453125 1.234375q0 0.734375 -0.453125 1.234375q-0.453125 0.484375 -1.34375 0.484375q-0.875 0 -1.328125 -0.484375q-0.4375 -0.5 -0.4375 -1.234375zm10.916077 4.671875l0.09375 2.21875q2.015625 -2.546875 5.28125 -2.546875q5.578125 0 5.625 6.296875l0 11.640623l-3.015625 0l0 -11.656248q-0.015625 -1.90625 -0.875 -2.8125q-0.84375 -0.90625 -2.65625 -0.90625q-1.453125 0 -2.5625 0.78125q-1.109375 0.78125 -1.734375 2.046875l0 12.546873l-3.0 0l0 -17.609373l2.84375 0zm22.842163 17.937498q-3.578125 0 -5.828125 -2.34375q-2.234375 -2.359375 -2.234375 -6.296875l0 -0.5625q0 -2.609373 1.0 -4.671873q1.0 -2.0625 2.796875 -3.21875q1.796875 -1.171875 3.890625 -1.171875q3.4375 0 5.34375 2.265625q1.90625 2.265625 1.90625 6.484373l0 1.25l-11.921875 0q0.0625 2.59375 1.515625 4.203125q1.453125 1.609375 3.703125 1.609375q1.59375 0 2.703125 -0.65625q1.109375 -0.65625 1.9375 -1.71875l1.828125 1.421875q-2.203125 3.40625 -6.640625 3.40625zm-0.375 -15.781248q-1.8125 0 -3.046875 1.328125q-1.234375 1.3125 -1.53125 3.703125l8.8125 0l0 -0.21875q-0.125 -2.296875 -1.234375 -3.546875q-1.109375 -1.265625 -3.0 -1.265625zm22.59494 12.890623l11.234375 0l0 2.5625l-14.375 0l0 -23.687498l3.140625 0l0 21.124998zm21.62088 2.890625q-3.578125 0 -5.828125 -2.34375q-2.234375 -2.359375 -2.234375 -6.296875l0 -0.5625q0 -2.609373 1.0 -4.671873q1.0 -2.0625 2.796875 -3.21875q1.796875 -1.171875 3.890625 -1.171875q3.4375 0 5.34375 2.265625q1.90625 2.265625 1.90625 6.484373l0 1.25l-11.921875 0q0.0625 2.59375 1.515625 4.203125q1.453125 1.609375 3.703125 1.609375q1.59375 0 2.703125 -0.65625q1.109375 -0.65625 1.9375 -1.71875l1.828125 1.421875q-2.203125 3.40625 -6.640625 3.40625zm-0.375 -15.781248q-1.8125 0 -3.046875 1.328125q-1.234375 1.3125 -1.53125 3.703125l8.8125 0l0 -0.21875q-0.125 -2.296875 -1.234375 -3.546875q-1.109375 -1.265625 -3.0 -1.265625zm21.609894 15.453123q-0.265625 -0.515625 -0.4375 -1.859375q-2.09375 2.1875 -5.0 2.1875q-2.609375 0 -4.28125 -1.46875q-1.65625 -1.484375 -1.65625 -3.734375q0 -2.75 2.078125 -4.265625q2.09375 -1.5312481 5.890625 -1.5312481l2.921875 0l0 -1.390625q0 -1.578125 -0.9375 -2.515625q-0.9375 -0.9375 -2.78125 -0.9375q-1.609375 0 -2.703125 0.828125q-1.09375 0.8125 -1.09375 1.96875l-3.03125 0q0 -1.328125 0.9375 -2.546875q0.9375 -1.234375 2.53125 -1.953125q1.609375 -0.71875 3.53125 -0.71875q3.046875 0 4.765625 1.53125q1.734375 1.515625 1.796875 4.1875l0 8.093748q0 2.4375 0.625 3.859375l0 0.265625l-3.15625 0zm-5.0 -2.296875q1.40625 0 2.671875 -0.734375q1.28125 -0.734375 1.84375 -1.90625l0 -3.609375l-2.359375 0q-5.53125 0 -5.53125 3.234375q0 1.421875 0.9375 2.21875q0.953125 0.796875 2.4375 0.796875zm20.769318 -12.609373q-0.6875 -0.109375 -1.484375 -0.109375q-2.96875 0 -4.03125 2.515625l0 12.499998l-3.0 0l0 -17.609373l2.921875 0l0.046875 2.03125q1.484375 -2.359375 4.203125 -2.359375q0.875 0 1.34375 0.234375l0 2.796875zm5.605652 -2.703125l0.09375 2.21875q2.015625 -2.546875 5.28125 -2.546875q5.578125 0 5.625 6.296875l0 11.640623l-3.015625 0l0 -11.656248q-0.015625 -1.90625 -0.875 -2.8125q-0.84375 -0.90625 -2.65625 -0.90625q-1.453125 0 -2.5625 0.78125q-1.109375 0.78125 -1.734375 2.046875l0 12.546873l-3.0 0l0 -17.609373l2.84375 0zm18.810913 17.609373l-3.015625 0l0 -17.609373l3.015625 0l0 17.609373zm-3.25 -22.281248q0 -0.734375 0.4375 -1.234375q0.453125 -0.5 1.328125 -0.5q0.890625 0 1.34375 0.5q0.453125 0.5 0.453125 1.234375q0 0.734375 -0.453125 1.234375q-0.453125 0.484375 -1.34375 0.484375q-0.875 0 -1.328125 -0.484375q-0.4375 -0.5 -0.4375 -1.234375zm10.916077 4.671875l0.09375 2.21875q2.015625 -2.546875 5.28125 -2.546875q5.578125 0 5.625 6.296875l0 11.640623l-3.015625 0l0 -11.656248q-0.015625 -1.90625 -0.875 -2.8125q-0.84375 -0.90625 -2.65625 -0.90625q-1.453125 0 -2.5625 0.78125q-1.109375 0.78125 -1.734375 2.046875l0 12.546873l-3.0 0l0 -17.609373l2.84375 0zm14.826538 8.656248q0 -4.109373 1.90625 -6.546873q1.90625 -2.4375 5.046875 -2.4375q3.21875 0 5.03125 2.28125l0.140625 -1.953125l2.75 0l0 17.187498q0 3.421875 -2.03125 5.390625q-2.015625 1.96875 -5.4375 1.96875q-1.90625 0 -3.734375 -0.8125q-1.8125 -0.8125 -2.78125 -2.234375l1.5625 -1.8125q1.9375 2.390625 4.734375 2.390625q2.203125 0 3.421875 -1.234375q1.234375 -1.234375 1.234375 -3.484375l0 -1.5q-1.796875 2.078125 -4.921875 2.078125q-3.09375 0 -5.015625 -2.484375q-1.90625 -2.5 -1.90625 -6.796875zm3.03125 0.34375q0 2.984375 1.21875 4.6875q1.21875 1.6875 3.421875 1.6875q2.84375 0 4.171875 -2.578125l0 -8.046873q-1.375 -2.515625 -4.140625 -2.515625q-2.203125 0 -3.4375 1.703125q-1.234375 1.703125 -1.234375 5.062498zm28.230194 -0.671875l0 9.28125l-3.125 0l0 -23.687498l8.734375 0q3.890625 0 6.09375 1.984375q2.203125 1.984375 2.203125 5.25q0 3.453125 -2.15625 5.3125q-2.15625 1.8593731 -6.171875 1.8593731l-5.578125 0zm0 -2.546873l5.609375 0q2.515625 0 3.84375 -1.171875q1.34375 -1.1875 1.34375 -3.421875q0 -2.109375 -1.34375 -3.375q-1.328125 -1.28125 -3.65625 -1.328125l-5.796875 0l0 9.296875zm25.947235 -3.078125q-0.6875 -0.109375 -1.484375 -0.109375q-2.96875 0 -4.03125 2.515625l0 12.499998l-3.0 0l0 -17.609373l2.921875 0l0.046875 2.03125q1.484375 -2.359375 4.203125 -2.359375q0.875 0 1.34375 0.234375l0 2.796875zm1.6395264 5.937498q0 -2.578123 1.015625 -4.640623q1.015625 -2.078125 2.828125 -3.203125q1.8125 -1.125 4.140625 -1.125q3.59375 0 5.8125305 2.5q2.234375 2.484375 2.234375 6.624998l0 0.203125q0 2.578125 -0.984375 4.625q-0.984375 2.03125 -2.8281555 3.171875q-1.828125 1.140625 -4.203125 1.140625q-3.578125 0 -5.796875 -2.484375q-2.21875 -2.5 -2.21875 -6.59375l0 -0.21875zm3.015625 0.359375q0 2.9375 1.359375 4.71875q1.359375 1.765625 3.640625 1.765625q2.296875 0 3.640625 -1.796875q1.3594055 -1.8125 1.3594055 -5.046875q0 -2.890623 -1.3750305 -4.687498q-1.375 -1.796875 -3.65625 -1.796875q-2.234375 0 -3.609375 1.78125q-1.359375 1.765625 -1.359375 5.062498zm23.851227 6.484375q1.609375 0 2.8125 -0.96875q1.203125 -0.984375 1.328125 -2.453125l2.859375 0q-0.09375 1.515625 -1.046875 2.890625q-0.953125 1.359375 -2.5625 2.171875q-1.609375 0.8125 -3.390625 0.8125q-3.59375 0 -5.71875 -2.390625q-2.125 -2.40625 -2.125 -6.578125l0 -0.5q0 -2.578123 0.9375 -4.578123q0.953125 -2.0 2.71875 -3.109375q1.765625 -1.109375 4.171875 -1.109375q2.953125 0 4.90625 1.78125q1.96875 1.765625 2.109375 4.609375l-2.859375 0q-0.125 -1.71875 -1.296875 -2.8125q-1.15625 -1.09375 -2.859375 -1.09375q-2.296875 0 -3.5625 1.65625q-1.265625 1.640625 -1.265625 4.765623l0 0.5625q0 3.046875 1.25 4.703125q1.265625 1.640625 3.59375 1.640625zm17.679565 2.453125q-3.578125 0 -5.828125 -2.34375q-2.234375 -2.359375 -2.234375 -6.296875l0 -0.5625q0 -2.609373 1.0 -4.671873q1.0 -2.0625 2.796875 -3.21875q1.796875 -1.171875 3.890625 -1.171875q3.4375 0 5.34375 2.265625q1.90625 2.265625 1.90625 6.484373l0 1.25l-11.921875 0q0.0625 2.59375 1.515625 4.203125q1.453125 1.609375 3.703125 1.609375q1.59375 0 2.703125 -0.65625q1.109375 -0.65625 1.9375 -1.71875l1.828125 1.421875q-2.203125 3.40625 -6.640625 3.40625zm-0.375 -15.781248q-1.8125 0 -3.046875 1.328125q-1.234375 1.3125 -1.53125 3.703125l8.8125 0l0 -0.21875q-0.125 -2.296875 -1.234375 -3.546875q-1.109375 -1.265625 -3.0 -1.265625zm20.984924 10.781248q0 -1.21875 -0.921875 -1.890625q-0.921875 -0.671875 -3.203125 -1.15625q-2.28125 -0.5 -3.625 -1.171875q-1.34375 -0.6875 -2.0 -1.6249981q-0.640625 -0.953125 -0.640625 -2.265625q0 -2.15625 1.828125 -3.65625q1.84375 -1.5 4.6875 -1.5q3.0 0 4.859375 1.546875q1.859375 1.546875 1.859375 3.953125l-3.015625 0q0 -1.234375 -1.0625 -2.125q-1.046875 -0.890625 -2.640625 -0.890625q-1.640625 0 -2.578125 0.71875q-0.921875 0.703125 -0.921875 1.859375q0 1.09375 0.859375 1.65625q0.875 0.546875 3.125 1.0468731q2.25 0.5 3.640625 1.203125q1.40625 0.703125 2.078125 1.6875q0.6875 0.984375 0.6875 2.40625q0 2.359375 -1.890625 3.78125q-1.890625 1.421875 -4.90625 1.421875q-2.109375 0 -3.734375 -0.75q-1.625 -0.75 -2.546875 -2.09375q-0.921875 -1.34375 -0.921875 -2.90625l3.015625 0q0.078125 1.515625 1.203125 2.40625q1.140625 0.890625 2.984375 0.890625q1.71875 0 2.75 -0.6875q1.03125 -0.703125 1.03125 -1.859375zm17.184814 0q0 -1.21875 -0.921875 -1.890625q-0.921875 -0.671875 -3.203125 -1.15625q-2.28125 -0.5 -3.625 -1.171875q-1.34375 -0.6875 -2.0 -1.6249981q-0.640625 -0.953125 -0.640625 -2.265625q0 -2.15625 1.828125 -3.65625q1.84375 -1.5 4.6875 -1.5q3.0 0 4.859375 1.546875q1.859375 1.546875 1.859375 3.953125l-3.015625 0q0 -1.234375 -1.0625 -2.125q-1.046875 -0.890625 -2.640625 -0.890625q-1.640625 0 -2.578125 0.71875q-0.921875 0.703125 -0.921875 1.859375q0 1.09375 0.859375 1.65625q0.875 0.546875 3.125 1.0468731q2.25 0.5 3.640625 1.203125q1.40625 0.703125 2.078125 1.6875q0.6875 0.984375 0.6875 2.40625q0 2.359375 -1.890625 3.78125q-1.890625 1.421875 -4.90625 1.421875q-2.109375 0 -3.734375 -0.75q-1.625 -0.75 -2.546875 -2.09375q-0.921875 -1.34375 -0.921875 -2.90625l3.015625 0q0.078125 1.515625 1.203125 2.40625q1.140625 0.890625 2.984375 0.890625q1.71875 0 2.75 -0.6875q1.03125 -0.703125 1.03125 -1.859375zm13.200439 -4.171875l-7.9375 0l0 -2.453123l7.9375 0l0 2.453123zm14.773315 -0.4375l0 9.28125l-3.125 0l0 -23.687498l8.734375 0q3.890625 0 6.09375 1.984375q2.203125 1.984375 2.203125 5.25q0 3.453125 -2.15625 5.3125q-2.15625 1.8593731 -6.171875 1.8593731l-5.578125 0zm0 -2.546873l5.609375 0q2.515625 0 3.84375 -1.171875q1.34375 -1.1875 1.34375 -3.421875q0 -2.109375 -1.34375 -3.375q-1.328125 -1.28125 -3.65625 -1.328125l-5.796875 0l0 9.296875zm28.127563 11.828123q-0.265625 -0.515625 -0.4375 -1.859375q-2.09375 2.1875 -5.0 2.1875q-2.609375 0 -4.28125 -1.46875q-1.65625 -1.484375 -1.65625 -3.734375q0 -2.75 2.078125 -4.265625q2.09375 -1.5312481 5.890625 -1.5312481l2.921875 0l0 -1.390625q0 -1.578125 -0.9375 -2.515625q-0.9375 -0.9375 -2.78125 -0.9375q-1.609375 0 -2.703125 0.828125q-1.09375 0.8125 -1.09375 1.96875l-3.03125 0q0 -1.328125 0.9375 -2.546875q0.9375 -1.234375 2.53125 -1.953125q1.609375 -0.71875 3.53125 -0.71875q3.046875 0 4.765625 1.53125q1.734375 1.515625 1.796875 4.1875l0 8.093748q0 2.4375 0.625 3.859375l0 0.265625l-3.15625 0zm-5.0 -2.296875q1.40625 0 2.671875 -0.734375q1.28125 -0.734375 1.84375 -1.90625l0 -3.609375l-2.359375 0q-5.53125 0 -5.53125 3.234375q0 1.421875 0.9375 2.21875q0.953125 0.796875 2.4375 0.796875zm22.503662 -2.375q0 -1.21875 -0.921875 -1.890625q-0.921875 -0.671875 -3.203125 -1.15625q-2.28125 -0.5 -3.625 -1.171875q-1.34375 -0.6875 -2.0 -1.6249981q-0.640625 -0.953125 -0.640625 -2.265625q0 -2.15625 1.828125 -3.65625q1.84375 -1.5 4.6875 -1.5q3.0 0 4.859375 1.546875q1.859375 1.546875 1.859375 3.953125l-3.015625 0q0 -1.234375 -1.0625 -2.125q-1.046875 -0.890625 -2.640625 -0.890625q-1.640625 0 -2.578125 0.71875q-0.921875 0.703125 -0.921875 1.859375q0 1.09375 0.859375 1.65625q0.875 0.546875 3.125 1.0468731q2.25 0.5 3.640625 1.203125q1.40625 0.703125 2.078125 1.6875q0.6875 0.984375 0.6875 2.40625q0 2.359375 -1.890625 3.78125q-1.890625 1.421875 -4.90625 1.421875q-2.109375 0 -3.734375 -0.75q-1.625 -0.75 -2.546875 -2.09375q-0.921875 -1.34375 -0.921875 -2.90625l3.015625 0q0.078125 1.515625 1.203125 2.40625q1.140625 0.890625 2.984375 0.890625q1.71875 0 2.75 -0.6875q1.03125 -0.703125 1.03125 -1.859375zm17.184814 0q0 -1.21875 -0.921875 -1.890625q-0.921875 -0.671875 -3.203125 -1.15625q-2.28125 -0.5 -3.625 -1.171875q-1.34375 -0.6875 -2.0 -1.6249981q-0.640625 -0.953125 -0.640625 -2.265625q0 -2.15625 1.828125 -3.65625q1.84375 -1.5 4.6875 -1.5q3.0 0 4.859375 1.546875q1.859375 1.546875 1.859375 3.953125l-3.015625 0q0 -1.234375 -1.0625 -2.125q-1.046875 -0.890625 -2.640625 -0.890625q-1.640625 0 -2.578125 0.71875q-0.921875 0.703125 -0.921875 1.859375q0 1.09375 0.859375 1.65625q0.875 0.546875 3.125 1.0468731q2.25 0.5 3.640625 1.203125q1.40625 0.703125 2.078125 1.6875q0.6875 0.984375 0.6875 2.40625q0 2.359375 -1.890625 3.78125q-1.890625 1.421875 -4.90625 1.421875q-2.109375 0 -3.734375 -0.75q-1.625 -0.75 -2.546875 -2.09375q-0.921875 -1.34375 -0.921875 -2.90625l3.015625 0q0.078125 1.515625 1.203125 2.40625q1.140625 0.890625 2.984375 0.890625q1.71875 0 2.75 -0.6875q1.03125 -0.703125 1.03125 -1.859375zm6.1379395 -4.296875q0 -2.578123 1.015625 -4.640623q1.015625 -2.078125 2.828125 -3.203125q1.8125 -1.125 4.140625 -1.125q3.59375 0 5.8125 2.5q2.234375 2.484375 2.234375 6.624998l0 0.203125q0 2.578125 -0.984375 4.625q-0.984375 2.03125 -2.828125 3.171875q-1.828125 1.140625 -4.203125 1.140625q-3.578125 0 -5.796875 -2.484375q-2.21875 -2.5 -2.21875 -6.59375l0 -0.21875zm3.015625 0.359375q0 2.9375 1.359375 4.71875q1.359375 1.765625 3.640625 1.765625q2.296875 0 3.640625 -1.796875q1.359375 -1.8125 1.359375 -5.046875q0 -2.890623 -1.375 -4.687498q-1.375 -1.796875 -3.65625 -1.796875q-2.234375 0 -3.609375 1.78125q-1.359375 1.765625 -1.359375 5.062498zm27.883057 -8.999998l0.09375 2.21875q2.015625 -2.546875 5.28125 -2.546875q5.578125 0 5.625 6.296875l0 11.640623l-3.015625 0l0 -11.656248q-0.015625 -1.90625 -0.875 -2.8125q-0.84375 -0.90625 -2.65625 -0.90625q-1.453125 0 -2.5625 0.78125q-1.109375 0.78125 -1.734375 2.046875l0 12.546873l-3.0 0l0 -17.609373l2.84375 0zm15.607788 16.031248q0 -0.78125 0.453125 -1.296875q0.46875 -0.53125 1.390625 -0.53125q0.9375 0 1.421875 0.53125q0.484375 0.515625 0.484375 1.296875q0 0.75 -0.484375 1.25q-0.484375 0.5 -1.421875 0.5q-0.921875 0 -1.390625 -0.5q-0.453125 -0.5 -0.453125 -1.25zm20.208984 -22.124998l0 2.546875l-0.546875 0q-3.515625 0.0625 -5.609375 2.09375q-2.078125 2.015625 -2.40625 5.671875q1.875 -2.15625 5.109375 -2.15625q3.09375 0 4.9375 2.1875q1.859375 2.171875 1.859375 5.624998q0 3.671875 -2.0 5.875q-2.0 2.1875 -5.34375 2.1875q-3.40625 0 -5.53125 -2.609375q-2.109375 -2.609375 -2.109375 -6.734375l0 -1.15625q0 -6.546873 2.796875 -9.999998q2.796875 -3.453125 8.3125 -3.53125l0.53125 0zm-3.953125 10.671875q-1.546875 0 -2.859375 0.921875q-1.296875 0.921875 -1.796875 2.328123l0 1.109375q0 2.921875 1.3125 4.71875q1.328125 1.78125 3.296875 1.78125q2.03125 0 3.1875 -1.484375q1.171875 -1.5 1.171875 -3.921875q0 -2.453125 -1.1875 -3.953123q-1.171875 -1.5 -3.125 -1.5z" fill-rule="nonzero"/><path fill="#212121" d="m262.62885 72.9471l0 9.28125l-3.125 0l0 -23.687504l8.734375 0q3.890625 0 6.09375 1.984375q2.203125 1.984375 2.203125 5.250004q0 3.453125 -2.15625 5.3125q-2.15625 1.859375 -6.171875 1.859375l-5.578125 0zm0 -2.546875l5.609375 0q2.515625 0 3.84375 -1.171875q1.34375 -1.1875 1.34375 -3.421875q0 -2.1093788 -1.34375 -3.3750038q-1.328125 -1.28125 -3.65625 -1.328125l-5.796875 0l0 9.296879zm25.947235 -3.078125q-0.6875 -0.109375 -1.484375 -0.109375q-2.96875 0 -4.03125 2.515625l0 12.5l-3.0 0l0 -17.609375l2.921875 0l0.046875 2.03125q1.484375 -2.359375 4.203125 -2.359375q0.875 0 1.34375 0.234375l0 2.796875zm9.749542 15.234375q-3.578125 0 -5.828125 -2.34375q-2.234375 -2.359375 -2.234375 -6.296875l0 -0.5625q0 -2.609375 1.0 -4.671875q1.0 -2.0625 2.796875 -3.21875q1.796875 -1.171875 3.890625 -1.171875q3.4375 0 5.34375 2.265625q1.90625 2.265625 1.90625 6.484375l0 1.25l-11.921875 0q0.0625 2.59375 1.515625 4.203125q1.453125 1.609375 3.703125 1.609375q1.59375 0 2.703125 -0.65625q1.109375 -0.65625 1.9375 -1.71875l1.828125 1.421875q-2.203125 3.40625 -6.640625 3.40625zm-0.375 -15.78125q-1.8125 0 -3.046875 1.328125q-1.234375 1.3125 -1.53125 3.703125l8.8125 0l0 -0.21875q-0.125 -2.296875 -1.234375 -3.546875q-1.109375 -1.265625 -3.0 -1.265625zm20.984894 10.78125q0 -1.21875 -0.921875 -1.890625q-0.921875 -0.671875 -3.203125 -1.15625q-2.28125 -0.5 -3.625 -1.171875q-1.34375 -0.6875 -2.0 -1.625q-0.640625 -0.953125 -0.640625 -2.265625q0 -2.15625 1.828125 -3.65625q1.84375 -1.5 4.6875 -1.5q3.0 0 4.859375 1.546875q1.859375 1.546875 1.859375 3.953125l-3.015625 0q0 -1.234375 -1.0625 -2.125q-1.046875 -0.890625 -2.640625 -0.890625q-1.640625 0 -2.578125 0.71875q-0.921875 0.703125 -0.921875 1.859375q0 1.09375 0.859375 1.65625q0.875 0.546875 3.125 1.046875q2.25 0.5 3.640625 1.203125q1.40625 0.703125 2.078125 1.6875q0.6875 0.984375 0.6875 2.40625q0 2.359375 -1.890625 3.78125q-1.890625 1.421875 -4.90625 1.421875q-2.109375 0 -3.734375 -0.75q-1.625 -0.75 -2.546875 -2.09375q-0.921875 -1.34375 -0.921875 -2.90625l3.015625 0q0.078125 1.515625 1.203125 2.40625q1.140625 0.890625 2.984375 0.890625q1.71875 0 2.75 -0.6875q1.03125 -0.703125 1.03125 -1.859375zm14.231689 5.0q-3.578125 0 -5.828125 -2.34375q-2.234375 -2.359375 -2.234375 -6.296875l0 -0.5625q0 -2.609375 1.0 -4.671875q1.0 -2.0625 2.796875 -3.21875q1.796875 -1.171875 3.890625 -1.171875q3.4375 0 5.34375 2.265625q1.90625 2.265625 1.90625 6.484375l0 1.25l-11.921875 0q0.0625 2.59375 1.515625 4.203125q1.453125 1.609375 3.703125 1.609375q1.59375 0 2.703125 -0.65625q1.109375 -0.65625 1.9375 -1.71875l1.828125 1.421875q-2.203125 3.40625 -6.640625 3.40625zm-0.375 -15.78125q-1.8125 0 -3.046875 1.328125q-1.234375 1.3125 -1.53125 3.703125l8.8125 0l0 -0.21875q-0.125 -2.296875 -1.234375 -3.546875q-1.109375 -1.265625 -3.0 -1.265625zm13.578613 -2.15625l0.09375 2.21875q2.015625 -2.546875 5.28125 -2.546875q5.578125 0 5.625 6.296875l0 11.640625l-3.015625 0l0 -11.65625q-0.015625 -1.90625 -0.875 -2.8125q-0.84375 -0.90625 -2.65625 -0.90625q-1.453125 0 -2.5625 0.78125q-1.109375 0.78125 -1.734375 2.046875l0 12.546875l-3.0 0l0 -17.609375l2.84375 0zm19.623413 -4.265629l0 4.265629l3.296875 0l0 2.328125l-3.296875 0l0 10.921875q0 1.0625 0.4375 1.59375q0.4375 0.515625 1.5 0.515625q0.515625 0 1.4375 -0.1875l0 2.4375q-1.1875 0.328125 -2.3125 0.328125q-2.015625 0 -3.046875 -1.21875q-1.015625 -1.21875 -1.015625 -3.46875l0 -10.921875l-3.21875 0l0 -2.328125l3.21875 0l0 -4.265629l3.0 0zm17.683868 21.875004q-0.265625 -0.515625 -0.4375 -1.859375q-2.09375 2.1875 -5.0 2.1875q-2.609375 0 -4.28125 -1.46875q-1.65625 -1.484375 -1.65625 -3.734375q0 -2.75 2.078125 -4.265625q2.09375 -1.53125 5.890625 -1.53125l2.921875 0l0 -1.390625q0 -1.578125 -0.9375 -2.515625q-0.9375 -0.9375 -2.78125 -0.9375q-1.609375 0 -2.703125 0.828125q-1.09375 0.8125 -1.09375 1.96875l-3.03125 0q0 -1.328125 0.9375 -2.546875q0.9375 -1.234375 2.53125 -1.953125q1.609375 -0.71875 3.53125 -0.71875q3.046875 0 4.765625 1.53125q1.734375 1.515625 1.796875 4.1875l0 8.09375q0 2.4375 0.625 3.859375l0 0.265625l-3.15625 0zm-5.0 -2.296875q1.40625 0 2.671875 -0.734375q1.28125 -0.734375 1.84375 -1.90625l0 -3.609375l-2.359375 0q-5.53125 0 -5.53125 3.234375q0 1.421875 0.9375 2.21875q0.953125 0.796875 2.4375 0.796875zm16.331818 -19.578129l0 4.265629l3.296875 0l0 2.328125l-3.296875 0l0 10.921875q0 1.0625 0.4375 1.59375q0.4375 0.515625 1.5 0.515625q0.515625 0 1.4375 -0.1875l0 2.4375q-1.1875 0.328125 -2.3125 0.328125q-2.015625 0 -3.046875 -1.21875q-1.015625 -1.21875 -1.015625 -3.46875l0 -10.921875l-3.21875 0l0 -2.328125l3.21875 0l0 -4.265629l3.0 0zm10.074463 21.875004l-3.015625 0l0 -17.609375l3.015625 0l0 17.609375zm-3.25 -22.281254q0 -0.734375 0.4375 -1.234375q0.453125 -0.5 1.328125 -0.5q0.890625 0 1.34375 0.5q0.453125 0.5 0.453125 1.234375q0 0.734375 -0.453125 1.234375q-0.453125 0.484375 -1.34375 0.484375q-0.875 0 -1.328125 -0.484375q-0.4375 -0.5 -0.4375 -1.234375zm7.2754517 13.312504q0 -2.578125 1.015625 -4.640625q1.015625 -2.078125 2.828125 -3.203125q1.8125 -1.125 4.140625 -1.125q3.59375 0 5.8125 2.5q2.234375 2.484375 2.234375 6.625l0 0.203125q0 2.578125 -0.984375 4.625q-0.984375 2.03125 -2.828125 3.171875q-1.828125 1.140625 -4.203125 1.140625q-3.578125 0 -5.796875 -2.484375q-2.21875 -2.5 -2.21875 -6.59375l0 -0.21875zm3.015625 0.359375q0 2.9375 1.359375 4.71875q1.359375 1.765625 3.640625 1.765625q2.296875 0 3.640625 -1.796875q1.359375 -1.8125 1.359375 -5.046875q0 -2.890625 -1.375 -4.6875q-1.375 -1.796875 -3.65625 -1.796875q-2.234375 0 -3.609375 1.78125q-1.359375 1.765625 -1.359375 5.0625zm19.632446 -9.0l0.09375 2.21875q2.015625 -2.546875 5.28125 -2.546875q5.578125 0 5.625 6.296875l0 11.640625l-3.015625 0l0 -11.65625q-0.015625 -1.90625 -0.875 -2.8125q-0.84375 -0.90625 -2.65625 -0.90625q-1.453125 0 -2.5625 0.78125q-1.109375 0.78125 -1.734375 2.046875l0 12.546875l-3.0 0l0 -17.609375l2.84375 0zm34.67096 17.609375q-0.265625 -0.515625 -0.4375 -1.859375q-2.09375 2.1875 -5.0 2.1875q-2.609375 0 -4.28125 -1.46875q-1.65625 -1.484375 -1.65625 -3.734375q0 -2.75 2.078125 -4.265625q2.09375 -1.53125 5.890625 -1.53125l2.921875 0l0 -1.390625q0 -1.578125 -0.9375 -2.515625q-0.9375 -0.9375 -2.78125 -0.9375q-1.609375 0 -2.703125 0.828125q-1.09375 0.8125 -1.09375 1.96875l-3.03125 0q0 -1.328125 0.9375 -2.546875q0.9375 -1.234375 2.53125 -1.953125q1.609375 -0.71875 3.53125 -0.71875q3.046875 0 4.765625 1.53125q1.734375 1.515625 1.796875 4.1875l0 8.09375q0 2.4375 0.625 3.859375l0 0.265625l-3.15625 0zm-5.0 -2.296875q1.40625 0 2.671875 -0.734375q1.28125 -0.734375 1.84375 -1.90625l0 -3.609375l-2.359375 0q-5.53125 0 -5.53125 3.234375q0 1.421875 0.9375 2.21875q0.953125 0.796875 2.4375 0.796875zm15.097412 -15.3125l0.09375 2.21875q2.015625 -2.546875 5.28125 -2.546875q5.578125 0 5.625 6.296875l0 11.640625l-3.015625 0l0 -11.65625q-0.015625 -1.90625 -0.875 -2.8125q-0.84375 -0.90625 -2.65625 -0.90625q-1.453125 0 -2.5625 0.78125q-1.109375 0.78125 -1.734375 2.046875l0 12.546875l-3.0 0l0 -17.609375l2.84375 0zm14.810944 8.65625q0 -4.046875 1.921875 -6.515625q1.921875 -2.46875 5.03125 -2.46875q3.09375 0 4.890625 2.125l0 -9.187504l3.015625 0l0 25.000004l-2.765625 0l-0.15625 -1.890625q-1.796875 2.21875 -5.015625 2.21875q-3.0625 0 -5.0 -2.5q-1.921875 -2.515625 -1.921875 -6.546875l0 -0.234375zm3.015625 0.34375q0 3.0 1.234375 4.6875q1.234375 1.6875 3.40625 1.6875q2.875 0 4.1875 -2.5625l0 -8.09375q-1.34375 -2.484375 -4.140625 -2.484375q-2.21875 0 -3.453125 1.703125q-1.234375 1.703125 -1.234375 5.0625zm35.64032 8.609375q-0.265625 -0.515625 -0.4375 -1.859375q-2.09375 2.1875 -5.0 2.1875q-2.609375 0 -4.28125 -1.46875q-1.65625 -1.484375 -1.65625 -3.734375q0 -2.75 2.078125 -4.265625q2.09375 -1.53125 5.890625 -1.53125l2.921875 0l0 -1.390625q0 -1.578125 -0.9375 -2.515625q-0.9375 -0.9375 -2.78125 -0.9375q-1.609375 0 -2.703125 0.828125q-1.09375 0.8125 -1.09375 1.96875l-3.03125 0q0 -1.328125 0.9375 -2.546875q0.9375 -1.234375 2.53125 -1.953125q1.609375 -0.71875 3.53125 -0.71875q3.046875 0 4.765625 1.53125q1.734375 1.515625 1.796875 4.1875l0 8.09375q0 2.4375 0.625 3.859375l0 0.265625l-3.15625 0zm-5.0 -2.296875q1.40625 0 2.671875 -0.734375q1.28125 -0.734375 1.84375 -1.90625l0 -3.609375l-2.359375 0q-5.53125 0 -5.53125 3.234375q0 1.421875 0.9375 2.21875q0.953125 0.796875 2.4375 0.796875zm23.128662 0.5625q-1.765625 2.0625 -5.171875 2.0625q-2.8125 0 -4.28125 -1.640625q-1.46875 -1.640625 -1.484375 -4.84375l0 -11.453125l3.0 0l0 11.375q0 4.0 3.265625 4.0q3.4375 0 4.578125 -2.5625l0 -12.8125l3.015625 0l0 17.609375l-2.859375 0l-0.0625 -1.734375zm11.575928 -20.140629l0 4.265629l3.296875 0l0 2.328125l-3.296875 0l0 10.921875q0 1.0625 0.4375 1.59375q0.4375 0.515625 1.5 0.515625q0.515625 0 1.4375 -0.1875l0 2.4375q-1.1875 0.328125 -2.3125 0.328125q-2.015625 0 -3.046875 -1.21875q-1.015625 -1.21875 -1.015625 -3.46875l0 -10.921875l-3.21875 0l0 -2.328125l3.21875 0l0 -4.265629l3.0 0zm5.6865234 12.906254q0 -2.578125 1.015625 -4.640625q1.015625 -2.078125 2.828125 -3.203125q1.8125 -1.125 4.140625 -1.125q3.59375 0 5.8125 2.5q2.234375 2.484375 2.234375 6.625l0 0.203125q0 2.578125 -0.984375 4.625q-0.984375 2.03125 -2.828125 3.171875q-1.828125 1.140625 -4.203125 1.140625q-3.578125 0 -5.796875 -2.484375q-2.21875 -2.5 -2.21875 -6.59375l0 -0.21875zm3.015625 0.359375q0 2.9375 1.359375 4.71875q1.359375 1.765625 3.640625 1.765625q2.296875 0 3.640625 -1.796875q1.359375 -1.8125 1.359375 -5.046875q0 -2.890625 -1.375 -4.6875q-1.375 -1.796875 -3.65625 -1.796875q-2.234375 0 -3.609375 1.78125q-1.359375 1.765625 -1.359375 5.0625zm19.616821 -9.0l0.078125 1.953125q1.9375 -2.28125 5.234375 -2.28125q3.6875 0 5.015625 2.828125q0.890625 -1.265625 2.296875 -2.046875q1.40625 -0.78125 3.328125 -0.78125q5.78125 0 5.890625 6.140625l0 11.796875l-3.015625 0l0 -11.625q0 -1.875 -0.859375 -2.8125q-0.859375 -0.9375 -2.90625 -0.9375q-1.671875 0 -2.78125 1.0q-1.09375 1.0 -1.28125 2.6875l0 11.6875l-3.03125 0l0 -11.53125q0 -3.84375 -3.75 -3.84375q-2.96875 0 -4.0625 2.515625l0 12.859375l-3.0 0l0 -17.609375l2.84375 0zm37.257812 17.609375q-0.265625 -0.515625 -0.4375 -1.859375q-2.09375 2.1875 -5.0 2.1875q-2.609375 0 -4.28125 -1.46875q-1.65625 -1.484375 -1.65625 -3.734375q0 -2.75 2.078125 -4.265625q2.09375 -1.53125 5.890625 -1.53125l2.921875 0l0 -1.390625q0 -1.578125 -0.9375 -2.515625q-0.9375 -0.9375 -2.78125 -0.9375q-1.609375 0 -2.703125 0.828125q-1.09375 0.8125 -1.09375 1.96875l-3.03125 0q0 -1.328125 0.9375 -2.546875q0.9375 -1.234375 2.53125 -1.953125q1.609375 -0.71875 3.53125 -0.71875q3.046875 0 4.765625 1.53125q1.734375 1.515625 1.796875 4.1875l0 8.09375q0 2.4375 0.625 3.859375l0 0.265625l-3.15625 0zm-5.0 -2.296875q1.40625 0 2.671875 -0.734375q1.28125 -0.734375 1.84375 -1.90625l0 -3.609375l-2.359375 0q-5.53125 0 -5.53125 3.234375q0 1.421875 0.9375 2.21875q0.953125 0.796875 2.4375 0.796875zm16.331787 -19.578129l0 4.265629l3.296875 0l0 2.328125l-3.296875 0l0 10.921875q0 1.0625 0.4375 1.59375q0.4375 0.515625 1.5 0.515625q0.515625 0 1.4375 -0.1875l0 2.4375q-1.1875 0.328125 -2.3125 0.328125q-2.015625 0 -3.046875 -1.21875q-1.015625 -1.21875 -1.015625 -3.46875l0 -10.921875l-3.21875 0l0 -2.328125l3.21875 0l0 -4.265629l3.0 0zm10.074463 21.875004l-3.015625 0l0 -17.609375l3.015625 0l0 17.609375zm-3.25 -22.281254q0 -0.734375 0.4375 -1.234375q0.453125 -0.5 1.328125 -0.5q0.890625 0 1.34375 0.5q0.453125 0.5 0.453125 1.234375q0 0.734375 -0.453125 1.234375q-0.453125 0.484375 -1.34375 0.484375q-0.875 0 -1.328125 -0.484375q-0.4375 -0.5 -0.4375 -1.234375zm7.2753906 13.312504q0 -2.578125 1.015625 -4.640625q1.015625 -2.078125 2.828125 -3.203125q1.8125 -1.125 4.140625 -1.125q3.59375 0 5.8125 2.5q2.234375 2.484375 2.234375 6.625l0 0.203125q0 2.578125 -0.984375 4.625q-0.984375 2.03125 -2.828125 3.171875q-1.828125 1.140625 -4.203125 1.140625q-3.578125 0 -5.796875 -2.484375q-2.21875 -2.5 -2.21875 -6.59375l0 -0.21875zm3.015625 0.359375q0 2.9375 1.359375 4.71875q1.359375 1.765625 3.640625 1.765625q2.296875 0 3.640625 -1.796875q1.359375 -1.8125 1.359375 -5.046875q0 -2.890625 -1.375 -4.6875q-1.375 -1.796875 -3.65625 -1.796875q-2.234375 0 -3.609375 1.78125q-1.359375 1.765625 -1.359375 5.0625zm19.632446 -9.0l0.09375 2.21875q2.015625 -2.546875 5.28125 -2.546875q5.578125 0 5.625 6.296875l0 11.640625l-3.015625 0l0 -11.65625q-0.015625 -1.90625 -0.875 -2.8125q-0.84375 -0.90625 -2.65625 -0.90625q-1.453125 0 -2.5625 0.78125q-1.109375 0.78125 -1.734375 2.046875l0 12.546875l-3.0 0l0 -17.609375l2.84375 0z" fill-rule="nonzero"/><path fill="#212121" d="m167.20096 112.9471l0 9.28125l-3.125 0l0 -23.6875l8.734375 0q3.890625 0 6.09375 1.984375q2.203125 1.984375 2.203125 5.25q0 3.453125 -2.15625 5.3125q-2.15625 1.859375 -6.171875 1.859375l-5.578125 0zm0 -2.546875l5.609375 0q2.515625 0 3.84375 -1.171875q1.34375 -1.1875 1.34375 -3.421875q0 -2.109375 -1.34375 -3.375q-1.328125 -1.28125 -3.65625 -1.328125l-5.796875 0l0 9.296875zm25.947235 -3.078125q-0.6875 -0.109375 -1.484375 -0.109375q-2.96875 0 -4.03125 2.515625l0 12.5l-3.0 0l0 -17.609375l2.921875 0l0.046875 2.03125q1.484375 -2.359375 4.203125 -2.359375q0.875 0 1.34375 0.234375l0 2.796875zm9.749542 15.234375q-3.578125 0 -5.828125 -2.34375q-2.234375 -2.359375 -2.234375 -6.296875l0 -0.5625q0 -2.609375 1.0 -4.671875q1.0 -2.0625 2.796875 -3.21875q1.796875 -1.171875 3.890625 -1.171875q3.4375 0 5.34375 2.265625q1.90625 2.265625 1.90625 6.484375l0 1.25l-11.921875 0q0.0625 2.59375 1.515625 4.203125q1.453125 1.609375 3.703125 1.609375q1.59375 0 2.703125 -0.65625q1.109375 -0.65625 1.9375 -1.71875l1.828125 1.421875q-2.203125 3.40625 -6.640625 3.40625zm-0.375 -15.78125q-1.8125 0 -3.046875 1.328125q-1.234375 1.3125 -1.53125 3.703125l8.8125 0l0 -0.21875q-0.125 -2.296875 -1.234375 -3.546875q-1.109375 -1.265625 -3.0 -1.265625zm20.984879 10.78125q0 -1.21875 -0.921875 -1.890625q-0.921875 -0.671875 -3.203125 -1.15625q-2.28125 -0.5 -3.625 -1.171875q-1.34375 -0.6875 -2.0 -1.625q-0.640625 -0.953125 -0.640625 -2.265625q0 -2.15625 1.828125 -3.65625q1.84375 -1.5 4.6875 -1.5q3.0 0 4.859375 1.546875q1.859375 1.546875 1.859375 3.953125l-3.015625 0q0 -1.234375 -1.0625 -2.125q-1.046875 -0.890625 -2.640625 -0.890625q-1.640625 0 -2.578125 0.71875q-0.921875 0.703125 -0.921875 1.859375q0 1.09375 0.859375 1.65625q0.875 0.546875 3.125 1.046875q2.25 0.5 3.640625 1.203125q1.40625 0.703125 2.078125 1.6875q0.6875 0.984375 0.6875 2.40625q0 2.359375 -1.890625 3.78125q-1.890625 1.421875 -4.90625 1.421875q-2.109375 0 -3.734375 -0.75q-1.625 -0.75 -2.546875 -2.09375q-0.921875 -1.34375 -0.921875 -2.90625l3.015625 0q0.078125 1.515625 1.203125 2.40625q1.140625 0.890625 2.984375 0.890625q1.71875 0 2.75 -0.6875q1.03125 -0.703125 1.03125 -1.859375zm14.231689 5.0q-3.578125 0 -5.828125 -2.34375q-2.234375 -2.359375 -2.234375 -6.296875l0 -0.5625q0 -2.609375 1.0 -4.671875q1.0 -2.0625 2.796875 -3.21875q1.796875 -1.171875 3.890625 -1.171875q3.4375 0 5.34375 2.265625q1.90625 2.265625 1.90625 6.484375l0 1.25l-11.921875 0q0.0625 2.59375 1.515625 4.203125q1.453125 1.609375 3.703125 1.609375q1.59375 0 2.703125 -0.65625q1.109375 -0.65625 1.9375 -1.71875l1.828125 1.421875q-2.203125 3.40625 -6.640625 3.40625zm-0.375 -15.78125q-1.8125 0 -3.046875 1.328125q-1.234375 1.3125 -1.53125 3.703125l8.8125 0l0 -0.21875q-0.125 -2.296875 -1.234375 -3.546875q-1.109375 -1.265625 -3.0 -1.265625zm13.578629 -2.15625l0.09375 2.21875q2.015625 -2.546875 5.28125 -2.546875q5.578125 0 5.625 6.296875l0 11.640625l-3.015625 0l0 -11.65625q-0.015625 -1.90625 -0.875 -2.8125q-0.84375 -0.90625 -2.65625 -0.90625q-1.453125 0 -2.5625 0.78125q-1.109375 0.78125 -1.734375 2.046875l0 12.546875l-3.0 0l0 -17.609375l2.84375 0zm19.623444 -4.265625l0 4.265625l3.296875 0l0 2.328125l-3.296875 0l0 10.921875q0 1.0625 0.4375 1.59375q0.4375 0.515625 1.5 0.515625q0.515625 0 1.4375 -0.1875l0 2.4375q-1.1875 0.328125 -2.3125 0.328125q-2.015625 0 -3.046875 -1.21875q-1.015625 -1.21875 -1.015625 -3.46875l0 -10.921875l-3.21875 0l0 -2.328125l3.21875 0l0 -4.265625l3.0 0zm17.683838 21.875q-0.265625 -0.515625 -0.4375 -1.859375q-2.09375 2.1875 -5.0 2.1875q-2.609375 0 -4.28125 -1.46875q-1.65625 -1.484375 -1.65625 -3.734375q0 -2.75 2.078125 -4.265625q2.09375 -1.53125 5.890625 -1.53125l2.921875 0l0 -1.390625q0 -1.578125 -0.9375 -2.515625q-0.9375 -0.9375 -2.78125 -0.9375q-1.609375 0 -2.703125 0.828125q-1.09375 0.8125 -1.09375 1.96875l-3.03125 0q0 -1.328125 0.9375 -2.546875q0.9375 -1.234375 2.53125 -1.953125q1.609375 -0.71875 3.53125 -0.71875q3.046875 0 4.765625 1.53125q1.734375 1.515625 1.796875 4.1875l0 8.09375q0 2.4375 0.625 3.859375l0 0.265625l-3.15625 0zm-5.0 -2.296875q1.40625 0 2.671875 -0.734375q1.28125 -0.734375 1.84375 -1.90625l0 -3.609375l-2.359375 0q-5.53125 0 -5.53125 3.234375q0 1.421875 0.9375 2.21875q0.953125 0.796875 2.4375 0.796875zm15.081787 -0.15625l10.296875 0l0 2.453125l-13.96875 0l0 -2.21875l9.703125 -12.90625l-9.5625 0l0 -2.484375l13.34375 0l0 2.140625l-9.8125 13.015625zm16.95514 2.453125l-3.015625 0l0 -17.609375l3.015625 0l0 17.609375zm-3.25 -22.28125q0 -0.734375 0.4375 -1.234375q0.453125 -0.5 1.328125 -0.5q0.890625 0 1.34375 0.5q0.453125 0.5 0.453125 1.234375q0 0.734375 -0.453125 1.234375q-0.453125 0.484375 -1.34375 0.484375q-0.875 0 -1.328125 -0.484375q-0.4375 -0.5 -0.4375 -1.234375zm7.275421 13.3125q0 -2.578125 1.015625 -4.640625q1.015625 -2.078125 2.828125 -3.203125q1.8125 -1.125 4.140625 -1.125q3.59375 0 5.8125 2.5q2.234375 2.484375 2.234375 6.625l0 0.203125q0 2.578125 -0.984375 4.625q-0.984375 2.03125 -2.828125 3.171875q-1.828125 1.140625 -4.203125 1.140625q-3.578125 0 -5.796875 -2.484375q-2.21875 -2.5 -2.21875 -6.59375l0 -0.21875zm3.015625 0.359375q0 2.9375 1.359375 4.71875q1.359375 1.765625 3.640625 1.765625q2.296875 0 3.640625 -1.796875q1.359375 -1.8125 1.359375 -5.046875q0 -2.890625 -1.375 -4.6875q-1.375 -1.796875 -3.65625 -1.796875q-2.234375 0 -3.609375 1.78125q-1.359375 1.765625 -1.359375 5.0625zm19.632446 -9.0l0.09375 2.21875q2.015625 -2.546875 5.28125 -2.546875q5.578125 0 5.625 6.296875l0 11.640625l-3.015625 0l0 -11.65625q-0.015625 -1.90625 -0.875 -2.8125q-0.84375 -0.90625 -2.65625 -0.90625q-1.453125 0 -2.5625 0.78125q-1.109375 0.78125 -1.734375 2.046875l0 12.546875l-3.0 0l0 -17.609375l2.84375 0zm22.842194 17.9375q-3.578125 0 -5.828125 -2.34375q-2.234375 -2.359375 -2.234375 -6.296875l0 -0.5625q0 -2.609375 1.0 -4.671875q1.0 -2.0625 2.796875 -3.21875q1.796875 -1.171875 3.890625 -1.171875q3.4375 0 5.34375 2.265625q1.90625 2.265625 1.90625 6.484375l0 1.25l-11.921875 0q0.0625 2.59375 1.515625 4.203125q1.453125 1.609375 3.703125 1.609375q1.59375 0 2.703125 -0.65625q1.109375 -0.65625 1.9375 -1.71875l1.828125 1.421875q-2.203125 3.40625 -6.640625 3.40625zm-0.375 -15.78125q-1.8125 0 -3.046875 1.328125q-1.234375 1.3125 -1.53125 3.703125l8.8125 0l0 -0.21875q-0.125 -2.296875 -1.234375 -3.546875q-1.109375 -1.265625 -3.0 -1.265625zm26.28241 15.78125q-3.578125 0 -5.828125 -2.34375q-2.234375 -2.359375 -2.234375 -6.296875l0 -0.5625q0 -2.609375 1.0 -4.671875q1.0 -2.0625 2.796875 -3.21875q1.796875 -1.171875 3.890625 -1.171875q3.4375 0 5.34375 2.265625q1.90625 2.265625 1.90625 6.484375l0 1.25l-11.921875 0q0.0625 2.59375 1.515625 4.203125q1.453125 1.609375 3.703125 1.609375q1.59375 0 2.703125 -0.65625q1.109375 -0.65625 1.9375 -1.71875l1.828125 1.421875q-2.203125 3.40625 -6.640625 3.40625zm-0.375 -15.78125q-1.8125 0 -3.046875 1.328125q-1.234375 1.3125 -1.53125 3.703125l8.8125 0l0 -0.21875q-0.125 -2.296875 -1.234375 -3.546875q-1.109375 -1.265625 -3.0 -1.265625zm19.454285 15.453125l0 -23.6875l6.6875 0q3.09375 0 5.46875 1.375q2.375 1.359375 3.671875 3.875q1.296875 2.515625 1.3125 5.796875l0 1.515625q0 3.34375 -1.296875 5.875q-1.296875 2.515625 -3.703125 3.875q-2.390625 1.34375 -5.578125 1.375l-6.5625 0zm3.125 -21.125l0 18.5625l3.28125 0q3.625 0 5.625 -2.234375q2.015625 -2.25 2.015625 -6.40625l0 -1.375q0 -4.03125 -1.90625 -6.265625q-1.890625 -2.25 -5.375 -2.28125l-3.640625 0zm21.527222 21.125l-3.015625 0l0 -17.609375l3.015625 0l0 17.609375zm-3.25 -22.28125q0 -0.734375 0.4375 -1.234375q0.453125 -0.5 1.328125 -0.5q0.890625 0 1.34375 0.5q0.453125 0.5 0.453125 1.234375q0 0.734375 -0.453125 1.234375q-0.453125 0.484375 -1.34375 0.484375q-0.875 0 -1.328125 -0.484375q-0.4375 -0.5 -0.4375 -1.234375zm18.322327 17.609375q0 -1.21875 -0.921875 -1.890625q-0.921875 -0.671875 -3.203125 -1.15625q-2.28125 -0.5 -3.625 -1.171875q-1.34375 -0.6875 -2.0 -1.625q-0.640625 -0.953125 -0.640625 -2.265625q0 -2.15625 1.828125 -3.65625q1.84375 -1.5 4.6875 -1.5q3.0 0 4.859375 1.546875q1.859375 1.546875 1.859375 3.953125l-3.015625 0q0 -1.234375 -1.0625 -2.125q-1.046875 -0.890625 -2.640625 -0.890625q-1.640625 0 -2.578125 0.71875q-0.921875 0.703125 -0.921875 1.859375q0 1.09375 0.859375 1.65625q0.875 0.546875 3.125 1.046875q2.25 0.5 3.640625 1.203125q1.40625 0.703125 2.078125 1.6875q0.6875 0.984375 0.6875 2.40625q0 2.359375 -1.890625 3.78125q-1.890625 1.421875 -4.90625 1.421875q-2.109375 0 -3.734375 -0.75q-1.625 -0.75 -2.546875 -2.09375q-0.921875 -1.34375 -0.921875 -2.90625l3.015625 0q0.078125 1.515625 1.203125 2.40625q1.140625 0.890625 2.984375 0.890625q1.71875 0 2.75 -0.6875q1.03125 -0.703125 1.03125 -1.859375zm11.012939 -17.203125l0 4.265625l3.296875 0l0 2.328125l-3.296875 0l0 10.921875q0 1.0625 0.4375 1.59375q0.4375 0.515625 1.5 0.515625q0.515625 0 1.4375 -0.1875l0 2.4375q-1.1875 0.328125 -2.3125 0.328125q-2.015625 0 -3.046875 -1.21875q-1.015625 -1.21875 -1.015625 -3.46875l0 -10.921875l-3.21875 0l0 -2.328125l3.21875 0l0 -4.265625l3.0 0zm15.324463 6.96875q-0.6875 -0.109375 -1.484375 -0.109375q-2.96875 0 -4.03125 2.515625l0 12.5l-3.0 0l0 -17.609375l2.921875 0l0.046875 2.03125q1.484375 -2.359375 4.203125 -2.359375q0.875 0 1.34375 0.234375l0 2.796875zm6.027527 14.90625l-3.015625 0l0 -17.609375l3.015625 0l0 17.609375zm-3.25 -22.28125q0 -0.734375 0.4375 -1.234375q0.453125 -0.5 1.328125 -0.5q0.890625 0 1.34375 0.5q0.453125 0.5 0.453125 1.234375q0 0.734375 -0.453125 1.234375q-0.453125 0.484375 -1.34375 0.484375q-0.875 0 -1.328125 -0.484375q-0.4375 -0.5 -0.4375 -1.234375zm22.978577 13.671875q0 4.03125 -1.859375 6.484375q-1.859375 2.453125 -4.984375 2.453125q-3.328125 0 -5.15625 -2.359375l-0.140625 2.03125l-2.765625 0l0 -25.0l3.0 0l0 9.328125q1.828125 -2.265625 5.03125 -2.265625q3.203125 0 5.03125 2.4375q1.84375 2.421875 1.84375 6.625l0 0.265625zm-3.015625 -0.34375q0 -3.078125 -1.1875 -4.75q-1.1875 -1.671875 -3.421875 -1.671875q-2.96875 0 -4.28125 2.765625l0 7.609375q1.390625 2.765625 4.3125 2.765625q2.171875 0 3.375 -1.671875q1.203125 -1.671875 1.203125 -5.046875zm17.682648 7.21875q-1.765625 2.0625 -5.1719055 2.0625q-2.8125 0 -4.28125 -1.640625q-1.46875 -1.640625 -1.484375 -4.84375l0 -11.453125l3.0 0l0 11.375q0 4.0 3.265625 4.0q3.4375305 0 4.5781555 -2.5625l0 -12.8125l3.015625 0l0 17.609375l-2.859375 0l-0.0625 -1.734375zm10.325928 -0.71875l10.296875 0l0 2.453125l-13.96875 0l0 -2.21875l9.703125 -12.90625l-9.5625 0l0 -2.484375l13.34375 0l0 2.140625l-9.8125 13.015625zm16.95514 2.453125l-3.015625 0l0 -17.609375l3.015625 0l0 17.609375zm-3.25 -22.28125q0 -0.734375 0.4375 -1.234375q0.453125 -0.5 1.328125 -0.5q0.890625 0 1.34375 0.5q0.453125 0.5 0.453125 1.234375q0 0.734375 -0.453125 1.234375q-0.453125 0.484375 -1.34375 0.484375q-0.875 0 -1.328125 -0.484375q-0.4375 -0.5 -0.4375 -1.234375zm7.2753906 13.3125q0 -2.578125 1.015625 -4.640625q1.015625 -2.078125 2.828125 -3.203125q1.8125 -1.125 4.140625 -1.125q3.59375 0 5.8125 2.5q2.234375 2.484375 2.234375 6.625l0 0.203125q0 2.578125 -0.984375 4.625q-0.984375 2.03125 -2.828125 3.171875q-1.828125 1.140625 -4.203125 1.140625q-3.578125 0 -5.796875 -2.484375q-2.21875 -2.5 -2.21875 -6.59375l0 -0.21875zm3.015625 0.359375q0 2.9375 1.359375 4.71875q1.359375 1.765625 3.640625 1.765625q2.296875 0 3.640625 -1.796875q1.359375 -1.8125 1.359375 -5.046875q0 -2.890625 -1.375 -4.6875q-1.375 -1.796875 -3.65625 -1.796875q-2.234375 0 -3.609375 1.78125q-1.359375 1.765625 -1.359375 5.0625zm19.632446 -9.0l0.09375 2.21875q2.015625 -2.546875 5.28125 -2.546875q5.578125 0 5.625 6.296875l0 11.640625l-3.015625 0l0 -11.65625q-0.015625 -1.90625 -0.875 -2.8125q-0.84375 -0.90625 -2.65625 -0.90625q-1.453125 0 -2.5625 0.78125q-1.109375 0.78125 -1.734375 2.046875l0 12.546875l-3.0 0l0 -17.609375l2.84375 0zm22.842163 17.9375q-3.578125 0 -5.828125 -2.34375q-2.234375 -2.359375 -2.234375 -6.296875l0 -0.5625q0 -2.609375 1.0 -4.671875q1.0 -2.0625 2.796875 -3.21875q1.796875 -1.171875 3.890625 -1.171875q3.4375 0 5.34375 2.265625q1.90625 2.265625 1.90625 6.484375l0 1.25l-11.921875 0q0.0625 2.59375 1.515625 4.203125q1.453125 1.609375 3.703125 1.609375q1.59375 0 2.703125 -0.65625q1.109375 -0.65625 1.9375 -1.71875l1.828125 1.421875q-2.203125 3.40625 -6.640625 3.40625zm-0.375 -15.78125q-1.8125 0 -3.046875 1.328125q-1.234375 1.3125 -1.53125 3.703125l8.8125 0l0 -0.21875q-0.125 -2.296875 -1.234375 -3.546875q-1.109375 -1.265625 -3.0 -1.265625zm18.25116 6.5q0 -4.046875 1.921875 -6.515625q1.921875 -2.46875 5.03125 -2.46875q3.09375 0 4.890625 2.125l0 -9.1875l3.015625 0l0 25.0l-2.765625 0l-0.15625 -1.890625q-1.796875 2.21875 -5.015625 2.21875q-3.0625 0 -5.0 -2.5q-1.921875 -2.515625 -1.921875 -6.546875l0 -0.234375zm3.015625 0.34375q0 3.0 1.234375 4.6875q1.234375 1.6875 3.40625 1.6875q2.875 0 4.1875 -2.5625l0 -8.09375q-1.34375 -2.484375 -4.140625 -2.484375q-2.21875 0 -3.453125 1.703125q-1.234375 1.703125 -1.234375 5.0625zm23.811523 8.9375q-3.578125 0 -5.828125 -2.34375q-2.234375 -2.359375 -2.234375 -6.296875l0 -0.5625q0 -2.609375 1.0 -4.671875q1.0 -2.0625 2.796875 -3.21875q1.796875 -1.171875 3.890625 -1.171875q3.4375 0 5.34375 2.265625q1.90625 2.265625 1.90625 6.484375l0 1.25l-11.921875 0q0.0625 2.59375 1.515625 4.203125q1.453125 1.609375 3.703125 1.609375q1.59375 0 2.703125 -0.65625q1.109375 -0.65625 1.9375 -1.71875l1.828125 1.421875q-2.203125 3.40625 -6.640625 3.40625zm-0.375 -15.78125q-1.8125 0 -3.046875 1.328125q-1.234375 1.3125 -1.53125 3.703125l8.8125 0l0 -0.21875q-0.125 -2.296875 -1.234375 -3.546875q-1.109375 -1.265625 -3.0 -1.265625zm14.000488 15.453125l-3.015625 0l0 -25.0l3.015625 0l0 25.0zm15.901123 -17.609375l0.078125 1.953125q1.9375 -2.28125 5.234375 -2.28125q3.6875 0 5.015625 2.828125q0.890625 -1.265625 2.296875 -2.046875q1.40625 -0.78125 3.328125 -0.78125q5.78125 0 5.890625 6.140625l0 11.796875l-3.015625 0l0 -11.625q0 -1.875 -0.859375 -2.8125q-0.859375 -0.9375 -2.90625 -0.9375q-1.671875 0 -2.78125 1.0q-1.09375 1.0 -1.28125 2.6875l0 11.6875l-3.03125 0l0 -11.53125q0 -3.84375 -3.75 -3.84375q-2.96875 0 -4.0625 2.515625l0 12.859375l-3.0 0l0 -17.609375l2.84375 0zm25.585938 8.640625q0 -2.578125 1.015625 -4.640625q1.015625 -2.078125 2.828125 -3.203125q1.8125 -1.125 4.140625 -1.125q3.59375 0 5.8125 2.5q2.234375 2.484375 2.234375 6.625l0 0.203125q0 2.578125 -0.984375 4.625q-0.984375 2.03125 -2.828125 3.171875q-1.828125 1.140625 -4.203125 1.140625q-3.578125 0 -5.796875 -2.484375q-2.21875 -2.5 -2.21875 -6.59375l0 -0.21875zm3.015625 0.359375q0 2.9375 1.359375 4.71875q1.359375 1.765625 3.640625 1.765625q2.296875 0 3.640625 -1.796875q1.359375 -1.8125 1.359375 -5.046875q0 -2.890625 -1.375 -4.6875q-1.375 -1.796875 -3.65625 -1.796875q-2.234375 0 -3.609375 1.78125q-1.359375 1.765625 -1.359375 5.0625zm16.054321 -0.34375q0 -4.046875 1.921875 -6.515625q1.921875 -2.46875 5.03125 -2.46875q3.09375 0 4.890625 2.125l0 -9.1875l3.015625 0l0 25.0l-2.765625 0l-0.15625 -1.890625q-1.796875 2.21875 -5.015625 2.21875q-3.0625 0 -5.0 -2.5q-1.921875 -2.515625 -1.921875 -6.546875l0 -0.234375zm3.015625 0.34375q0 3.0 1.234375 4.6875q1.234375 1.6875 3.40625 1.6875q2.875 0 4.1875 -2.5625l0 -8.09375q-1.34375 -2.484375 -4.140625 -2.484375q-2.21875 0 -3.453125 1.703125q-1.234375 1.703125 -1.234375 5.0625zm23.811523 8.9375q-3.578125 0 -5.828125 -2.34375q-2.234375 -2.359375 -2.234375 -6.296875l0 -0.5625q0 -2.609375 1.0 -4.671875q1.0 -2.0625 2.796875 -3.21875q1.796875 -1.171875 3.890625 -1.171875q3.4375 0 5.34375 2.265625q1.90625 2.265625 1.90625 6.484375l0 1.25l-11.921875 0q0.0625 2.59375 1.515625 4.203125q1.453125 1.609375 3.703125 1.609375q1.59375 0 2.703125 -0.65625q1.109375 -0.65625 1.9375 -1.71875l1.828125 1.421875q-2.203125 3.40625 -6.640625 3.40625zm-0.375 -15.78125q-1.8125 0 -3.046875 1.328125q-1.234375 1.3125 -1.53125 3.703125l8.8125 0l0 -0.21875q-0.125 -2.296875 -1.234375 -3.546875q-1.109375 -1.265625 -3.0 -1.265625zm14.000488 15.453125l-3.015625 0l0 -25.0l3.015625 0l0 25.0zm8.087952 0l-3.015625 0l0 -25.0l3.015625 0l0 25.0zm4.0254517 -8.96875q0 -2.578125 1.015625 -4.640625q1.015625 -2.078125 2.828125 -3.203125q1.8125 -1.125 4.140625 -1.125q3.59375 0 5.8125 2.5q2.234375 2.484375 2.234375 6.625l0 0.203125q0 2.578125 -0.984375 4.625q-0.984375 2.03125 -2.828125 3.171875q-1.828125 1.140625 -4.203125 1.140625q-3.578125 0 -5.796875 -2.484375q-2.21875 -2.5 -2.21875 -6.59375l0 -0.21875zm3.015625 0.359375q0 2.9375 1.359375 4.71875q1.359375 1.765625 3.640625 1.765625q2.296875 0 3.640625 -1.796875q1.359375 -1.8125 1.359375 -5.046875q0 -2.890625 -1.375 -4.6875q-1.375 -1.796875 -3.65625 -1.796875q-2.234375 0 -3.609375 1.78125q-1.359375 1.765625 -1.359375 5.0625z" fill-rule="nonzero"/><a xlink:href="https://www.google.com/url?q=https://colab.research.google.com/drive/1zwaIwp6lZvUq6tdStA4W_HAUUXj-xsjG&amp;sa=D&amp;ust=1609696155375000&amp;usg=AOvVaw0ukU4_8dWd0hlie5WyOYz5" target="_blank" rel="noreferrer"><path fill="transparent" fill-opacity="0" d="m935.3711 22.409897l0 0c0 -12.376644 -10.033264 -22.409897 -22.409851 -22.409897l-890.5503 0c-5.9434757 0 -11.64352 2.3610358 -15.846191 6.563707c-4.202671 4.2026706 -6.563707 9.902716 -6.563707 15.8461895l0 89.6369c0 12.37664 10.033253 22.409897 22.409899 22.409897l890.5503 0c12.376587 0 22.409851 -10.033257 22.409851 -22.409897z" fill-rule="evenodd"/></a></g></g></svg>